<svg id="Layer_1" data-name="Layer 1" xmlns="http://www.w3.org/2000/svg" viewBox="0 0 80 78.66"><defs><style>.cls-1{fill:#fff;opacity:0.5;}.cls-2{fill:#25303c;}</style></defs><circle class="cls-1" cx="39.5" cy="39.33" r="38.84" transform="matrix(1, -0.03, 0.03, 1, -1.35, 1.41)"/><path class="cls-2" d="M15.34,58.5,27.25,46.58a30.58,30.58,0,0,0,6.31,6.34L21.65,64.83a4.48,4.48,0,0,1-6.31-6.33Zm64-30.23A27.37,27.37,0,1,1,52,.91,27.37,27.37,0,0,1,79.34,28.27Zm-6,0A21.33,21.33,0,1,0,52,49.6,21.35,21.35,0,0,0,73.3,28.27ZM52,9.06A19.22,19.22,0,1,0,71.19,28.27,19.23,19.23,0,0,0,52,9.06Z"/></svg>