<svg id="Layer_1" data-name="Layer 1" xmlns="http://www.w3.org/2000/svg" viewBox="0 0 80 78.66"><defs><style>.cls-1{fill:#fff;opacity:0.5;}.cls-2{fill:#25303c;}</style></defs><circle class="cls-1" cx="39.5" cy="39.33" r="38.84" transform="translate(-1.35 1.41) rotate(-2.01)"/><path class="cls-2" d="M56.35,10.07V.9L67,11.5H57.78A1.43,1.43,0,0,1,56.35,10.07Zm11.43,4.29V55.79a4.28,4.28,0,0,1-4.28,4.28h-40a4.29,4.29,0,0,1-4.29-4.28V4.36A4.29,4.29,0,0,1,23.5.07h30v10a4.28,4.28,0,0,0,4.28,4.29ZM55.49,43.57a1.63,1.63,0,0,0-1.62-1.63H33.13a1.63,1.63,0,1,0,0,3.25H53.87A1.63,1.63,0,0,0,55.49,43.57Zm0-10.07a1.63,1.63,0,0,0-1.62-1.63H33.13a1.63,1.63,0,1,0,0,3.26H53.87A1.63,1.63,0,0,0,55.49,33.5Zm0-10.06a1.63,1.63,0,0,0-1.62-1.63H33.13a1.63,1.63,0,1,0,0,3.25H53.87A1.62,1.62,0,0,0,55.49,23.44Z"/></svg>