<svg id="Layer_1" data-name="Layer 1" xmlns="http://www.w3.org/2000/svg" viewBox="0 0 80 78.66"><defs><style>.cls-1{fill:#fff;opacity:0.5;}.cls-2{fill:#25303c;fill-rule:evenodd;}</style></defs><circle class="cls-1" cx="39.5" cy="39.33" r="38.84" transform="translate(-1.35 1.41) rotate(-2.01)"/><path class="cls-2" d="M35.75,32.34a3.77,3.77,0,1,1-2.06,7.25,3.85,3.85,0,0,1-2.59-4.65A3.79,3.79,0,0,1,35.75,32.34Zm6.47-10a4.48,4.48,0,0,0,4.44,4.54,4.55,4.55,0,0,0,0-9.09A4.49,4.49,0,0,0,42.22,22.34ZM16,27.57C18,14.76,26.63,7.31,40.42,6.61c7.89-.41,15.29,2.15,20.27,7a17.9,17.9,0,0,1,5.62,13.61c0,.74-.09,1.64-.16,2.55C66.05,31,66,32.3,66,33.32c0,4.44,2.48,7.18,4.12,9a7.62,7.62,0,0,1,1.19,1.51c0,.56-.07.68-1.12,1.38a7.76,7.76,0,0,0-3.65,4.66,26.94,26.94,0,0,0-.81,5c-.43,4.48-.79,6-4.73,5.81-.76,0-1.61-.14-2.5-.25a32.7,32.7,0,0,0-4-.33,6.71,6.71,0,0,0-4.71,1.46c-.46.43-1.87,1.75-3.33,10.05L23.58,71.5a62,62,0,0,0,2.38-12c.17-2.69-.54-6.68-2.49-9.21C17,41.92,14.85,35.33,16,27.57ZM45.73,33h1.85l1-3.59c.58-.23,1.16-.46,1.62-.69l3.36,1.85,1.27-1.39L53,25.92a4,4,0,0,0,.69-1.62l3.59-1V21.41l-3.59-1A4,4,0,0,0,53,18.75l1.85-3.24L53.6,14.12,50.24,16a4.19,4.19,0,0,0-1.62-.69l-1-3.59H45.73l-1,3.59a5.14,5.14,0,0,0-1.62.69l-3.24-1.85-1.27,1.39,1.73,3.24c-.23.46-.46,1-.69,1.62l-3.59,1v1.85l3.59,1c.23.58.46,1.16.69,1.62l-1.73,3.24,1.27,1.39,3.24-1.85c.58.23,1,.46,1.62.69Zm-19,6.63.7,1.39,3-.81a8.59,8.59,0,0,0,1.16.93l.12,3.12L33,44.7,34.66,42a5.7,5.7,0,0,0,1.51-.23l2.2,2.2,1.38-.81-.69-3A4,4,0,0,0,39.87,39H43l.47-1.5L40.8,35.91a5.63,5.63,0,0,0-.24-1.39l2.2-2.31-.69-1.27-3.13.69a4.56,4.56,0,0,0-1.15-.93V27.58l-1.51-.35-1.62,2.66a5.37,5.37,0,0,0-1.38.12L31,27.81l-1.27.81.69,3a10.93,10.93,0,0,0-.92,1.16H26.33L26,34.29l2.66,1.62a6.37,6.37,0,0,0,.11,1.5ZM24.39,26.8l2-.85a4.25,4.25,0,0,0,1,.5l.38,2.21,1,.16.89-2.17a1.34,1.34,0,0,0,.94-.31l1.92,1.34.84-.66-.85-2.12a7.37,7.37,0,0,0,.49-.91l2.1-.38.16-1.16-2.06-.77c-.1-.35-.2-.7-.31-1.05l1.23-1.81L33.51,18l-2,.85a4.43,4.43,0,0,0-1-.5l-.38-2.21-1-.16-.89,2.17a1.33,1.33,0,0,0-.93.31l-1.92-1.34-.84.66.85,2.12a7.29,7.29,0,0,0-.5.91l-2.09.38-.16,1.16,2.05.77c.11.35.21.7.31,1.05L23.73,26Zm2.27-4.63a2.31,2.31,0,0,0,4.59.45,2.22,2.22,0,0,0-2-2.47A2.29,2.29,0,0,0,26.66,22.17Z"/></svg>