<svg id="Layer_1" data-name="Layer 1" xmlns="http://www.w3.org/2000/svg" viewBox="0 0 1540 1026"><defs><style>.cls-1{fill:#a2d5c6;}.cls-2,.cls-4,.cls-6{fill:#fff;}.cls-2,.cls-6{fill-rule:evenodd;}.cls-2{isolation:isolate;}.cls-2,.cls-5{opacity:0.15;}.cls-3{opacity:0.25;}</style></defs><rect class="cls-1" x="0.29" width="1540" height="1026"/><path class="cls-2" d="M1227.09,461.84h81.62a48.92,48.92,0,0,1,48.78,48.77V524.1L1493,654.32l-137.76-47.55A49,49,0,0,1,1308.67,641h-81.62a48.93,48.93,0,0,1-48.78-48.77V510.61A48.92,48.92,0,0,1,1227.09,461.84Z"/><g class="cls-3"><path class="cls-4" d="M1495,675.15a.88.88,0,0,1-.33,0l-136.75-47.17a50.29,50.29,0,0,1-47.19,34h-81.62a49.86,49.86,0,0,1-49.8-49.79V530.43a49.85,49.85,0,0,1,49.8-49.78h81.62a49.85,49.85,0,0,1,49.79,49.78v13.06L1495.7,673.41a1,1,0,0,1,.07,1.41A1,1,0,0,1,1495,675.15Zm-137.72-49.57a1.26,1.26,0,0,1,.33,0l133.35,46-132.17-127a1.13,1.13,0,0,1-.31-.74V530.43a47.81,47.81,0,0,0-47.76-47.75H1229.1a47.82,47.82,0,0,0-47.76,47.75v81.63a47.83,47.83,0,0,0,47.76,47.76h81.62a48.22,48.22,0,0,0,45.58-33.53,1.12,1.12,0,0,1,.52-.61,1.06,1.06,0,0,1,.46-.1Z"/></g><path class="cls-2" d="M1286.43,171.82A81.92,81.92,0,0,1,1359,215.76a62.27,62.27,0,1,1,23.53,119.93H1196.86a62.27,62.27,0,1,1,18-121.88A81.9,81.9,0,0,1,1286.43,171.82Z"/><path class="cls-2" d="M1435,136.86a18.58,18.58,0,1,0-18.57-18.59v0A18.6,18.6,0,0,0,1435,136.86Z"/><path class="cls-2" d="M1371.66,189.3a36.06,36.06,0,1,0-36-36.12v.07A36.12,36.12,0,0,0,1371.66,189.3Z"/><g class="cls-3"><path class="cls-4" d="M1396.9,353.46H1211.23a63.29,63.29,0,1,1,17.55-124.11,83,83,0,0,1,145.1,1.87,63.3,63.3,0,1,1,23.06,122.24ZM1211.23,228.93a61.26,61.26,0,1,0-1.57,122.51h187.28a61.26,61.26,0,1,0-23.15-118,1,1,0,0,1-1.28-.47,80.94,80.94,0,0,0-142.37-1.92,1,1,0,0,1-1.18.48A61.22,61.22,0,0,0,1211.23,228.93Z"/></g><g class="cls-3"><path class="cls-4" d="M1377.77,199.93a37.07,37.07,0,1,1,37.06-37.07h0A37.1,37.1,0,0,1,1377.77,199.93Zm0-72.1a35,35,0,1,0,35,35h0a35.08,35.08,0,0,0-35-35.05Z"/></g><g class="cls-3"><path class="cls-4" d="M1441.14,143.34a19.59,19.59,0,1,1,19.59-19.59h0A19.61,19.61,0,0,1,1441.14,143.34Zm0-37.14a17.56,17.56,0,1,0,17.56,17.56A17.56,17.56,0,0,0,1441.14,106.2Z"/></g><path class="cls-2" d="M332.12,383.93c-72.4,0-131.1-35.22-131.1-78.66,0-19.57,11.92-37.48,31.64-51.24-5.84-15.75-32.69-74.13-113.85-88.21,45.42-15.49,170.71,12.05,196.27,61.4,5.57-.43,11.26-.66,17-.66,72.4,0,131.1,35.22,131.1,78.66S404.52,383.93,332.12,383.93Z"/><g class="cls-3"><path class="cls-4" d="M317.8,378.3c-72.84,0-132.11-35.74-132.11-79.68,0-18.94,11.15-37.25,31.43-51.62-6.8-17.86-34-73.15-112.8-86.82a1,1,0,0,1-.15-2c46.31-15.74,170.92,12.32,197.18,61.35,5.45-.41,11-.61,16.45-.61,72.85,0,132.12,35.74,132.12,79.67S390.65,378.3,317.8,378.3Zm-209-219.37C186.62,174.2,213,230,219.31,247a1,1,0,0,1-.37,1.18c-20.13,14-31.21,32-31.21,50.41,0,42.82,58.36,77.65,130.08,77.65S447.9,341.43,447.9,298.61,389.54,221,317.81,221c-5.64,0-11.35.22-17,.66a1,1,0,0,1-1-.55c-11.36-22-44.18-41.82-90-54.51C171.31,155.93,131.64,153,108.84,158.93Z"/></g><g class="cls-5"><path class="cls-6" d="M212.23,699.74H396.62a43.13,43.13,0,0,1,43,43V850.57a43.13,43.13,0,0,1-43,43H280.93l-73.1,77.67,5.48-77.68h-1.08a43.11,43.11,0,0,1-43-43V742.73A43.12,43.12,0,0,1,212.23,699.74Z"/></g><g class="cls-3"><path class="cls-4" d="M199.93,951.36a1.13,1.13,0,0,1-.45-.09,1.08,1.08,0,0,1-.64-1.07l5.4-76.52a44.12,44.12,0,0,1-44-44.07V721.77a44.12,44.12,0,0,1,44.08-44.08H388.71a44.13,44.13,0,0,1,44.08,44.08V829.61a44.13,44.13,0,0,1-44.08,44.07H273.49L200.71,951A1.06,1.06,0,0,1,199.93,951.36Zm4.38-271.5a42,42,0,0,0-41.91,41.91V829.61a42,42,0,0,0,41.91,41.91h1.1a1.1,1.1,0,0,1,.79.34,1.07,1.07,0,0,1,.28.82l-5.25,74.64,71-75.46a1.07,1.07,0,0,1,.79-.34H388.71a42,42,0,0,0,41.91-41.91V721.77a42,42,0,0,0-41.91-41.91Z"/></g><path class="cls-2" d="M1540.16,946.69A91.35,91.35,0,1,1,1540.1,769Z"/><g class="cls-3"><path class="cls-4" d="M1511.64,968a92.36,92.36,0,1,1,28.64-180.17l-.64,1.94a90.33,90.33,0,1,0,.18,171.68l.64,1.93A91.64,91.64,0,0,1,1511.64,968Z"/></g><path class="cls-2" d="M-.34,313.43a91.56,91.56,0,0,1,87.66,91.28A91.55,91.55,0,0,1-.34,496Z"/><path class="cls-2" d="M102.37,600.76A18.58,18.58,0,1,0,83.8,582.17v0A18.6,18.6,0,0,0,102.37,600.76Z"/><path class="cls-2" d="M64.66,562a36.06,36.06,0,1,0-36-36.07h0A36.12,36.12,0,0,0,64.66,562Z"/><g class="cls-3"><path class="cls-4" d="M-.17,514.18l-.24-2a90.4,90.4,0,0,0,79.5-89.68A90.37,90.37,0,0,0-.46,332.79l.24-2A92.42,92.42,0,0,1,81.12,422.5,92.42,92.42,0,0,1-.17,514.18Z"/></g><g class="cls-3"><path class="cls-4" d="M55.4,570.93a37.07,37.07,0,1,1,37.06-37.08h0A37.12,37.12,0,0,1,55.4,570.93Zm0-72.11a35,35,0,1,0,35,35h0a35.08,35.08,0,0,0-35-35Z"/></g><g class="cls-3"><path class="cls-4" d="M93.11,607.8a19.59,19.59,0,1,1,19.58-19.6h0A19.62,19.62,0,0,1,93.11,607.8Zm0-37.15a17.56,17.56,0,1,0,17.54,17.57h0A17.58,17.58,0,0,0,93.11,570.65Z"/></g></svg>