<svg id="Layer_1" data-name="Layer 1" xmlns="http://www.w3.org/2000/svg" viewBox="0 0 204 166"><defs><style>.cls-1{fill:#faa15c;fill-rule:evenodd;}.cls-2{fill:#25303c;}</style></defs><path class="cls-1" d="M32.68.23H171.32a32.42,32.42,0,0,1,32.32,32.32v67.6a32.42,32.42,0,0,1-32.32,32.32h-87l-50.84,33.3v-33.3h-.83A32.42,32.42,0,0,1,.36,100.15V32.55A32.42,32.42,0,0,1,32.68.23Z"/><path class="cls-2" d="M71.79,112.9l0-.15,4.3-11.89a.42.42,0,0,1,.13-.21.43.43,0,0,1,.24-.06h1.7a.39.39,0,0,1,.42.29l4.27,11.89a.27.27,0,0,1,0,.11c0,.15-.06.22-.19.22h-1.6a.27.27,0,0,1-.29-.2l-1.08-3a.33.33,0,0,0-.06-.12.24.24,0,0,0-.14,0H74.88a.19.19,0,0,0-.2.13l-1.1,3.05c0,.12-.13.17-.29.17H72C71.86,113.1,71.79,113,71.79,112.9ZM79,108.16c.08,0,.13,0,.14-.06a.21.21,0,0,0,0-.17l-1.82-5.06q0-.12-.12-.12s-.08,0-.11.13l-1.88,5.06v.1q0,.12.15.12Zm14.45-3.91V105c0,.22-.09.33-.28.33l-.51,0a1.93,1.93,0,0,0-.4.07.59.59,0,0,0-.3.16.26.26,0,0,0,0,.23l.12.33a1.87,1.87,0,0,1,.11.7,2.39,2.39,0,0,1-1,2,4.43,4.43,0,0,1-2.8.77,5.19,5.19,0,0,0-1.62.18c-.34.13-.51.29-.51.49s.11.29.32.37a4.4,4.4,0,0,0,1.08.14l2.24.13a3.89,3.89,0,0,1,2.27.71,2.08,2.08,0,0,1,.75,1.67,2.29,2.29,0,0,1-1.17,2,6.15,6.15,0,0,1-3.31.74,7.53,7.53,0,0,1-3.38-.59,1.85,1.85,0,0,1-1.16-1.72,1.48,1.48,0,0,1,.4-1,3.78,3.78,0,0,1,1.19-.79c.13-.07.13-.13,0-.19a1.18,1.18,0,0,1-.85-1.08,1,1,0,0,1,.38-.75,2.8,2.8,0,0,1,1.06-.59c.06,0,.1-.06.1-.09s0-.08-.1-.12a2.83,2.83,0,0,1-1.13-.94,2.34,2.34,0,0,1-.38-1.33,2.42,2.42,0,0,1,1-2.07,4.94,4.94,0,0,1,2.93-.75,4,4,0,0,1,2.58.76.42.42,0,0,0,.18.08.29.29,0,0,0,.21-.1,2.94,2.94,0,0,1,.78-.58,1.87,1.87,0,0,1,.85-.24C93.38,104,93.48,104.05,93.48,104.25ZM87,112.19a1.48,1.48,0,0,0-.68.15,1.64,1.64,0,0,0-.61.49,1.1,1.1,0,0,0-.24.7c0,1,1.05,1.53,3.17,1.53a4.28,4.28,0,0,0,2-.38,1.22,1.22,0,0,0,.69-1.14c0-.73-.52-1.13-1.58-1.2Zm3-4.07a1.58,1.58,0,0,0,.53-1.27,1.66,1.66,0,0,0-.54-1.32,2.37,2.37,0,0,0-1.58-.47,2.45,2.45,0,0,0-1.61.48,1.61,1.61,0,0,0-.57,1.31,1.51,1.51,0,0,0,.57,1.26,2.45,2.45,0,0,0,1.61.46A2.41,2.41,0,0,0,90,108.12Zm6.61,2.51A2.71,2.71,0,0,0,99,112a2.88,2.88,0,0,0,1.39-.32,3.4,3.4,0,0,0,1.11-1,.13.13,0,0,1,.12-.07.25.25,0,0,1,.13,0l.86.41a.15.15,0,0,1,.09.13.34.34,0,0,1,0,.14,4.35,4.35,0,0,1-1.62,1.51,4.84,4.84,0,0,1-2.21.46,4.46,4.46,0,0,1-2.26-.57A3.94,3.94,0,0,1,95,111.09a4.92,4.92,0,0,1-.56-2.35,5.27,5.27,0,0,1,.57-2.5A4.13,4.13,0,0,1,98.75,104a4.34,4.34,0,0,1,2.19.54,3.72,3.72,0,0,1,1.46,1.6,5.57,5.57,0,0,1,.51,2.48v.06a.45.45,0,0,1,0,.23.23.23,0,0,1-.21.08H96.42c-.11,0-.17.09-.17.27A2.67,2.67,0,0,0,96.61,110.63Zm4.24-2.7a.39.39,0,0,0,.23-.05.25.25,0,0,0,.06-.19,2.71,2.71,0,0,0-.28-1.23,2.18,2.18,0,0,0-.81-.92,2.23,2.23,0,0,0-1.25-.35,2.42,2.42,0,0,0-1.34.38,2.65,2.65,0,0,0-.88,1,2.78,2.78,0,0,0-.3,1.34Zm3.85,4.9v-8.41c0-.17.07-.26.22-.26h1.33c.13,0,.2.08.2.22v.93c0,.07,0,.11,0,.12s.07,0,.13-.07a8.89,8.89,0,0,1,1.55-1,3.44,3.44,0,0,1,1.47-.32,2.71,2.71,0,0,1,2,.7,2.49,2.49,0,0,1,.72,1.88v6.22a.26.26,0,0,1-.29.3H110.8c-.17,0-.25-.09-.25-.27v-5.9a1.58,1.58,0,0,0-.4-1.17,1.54,1.54,0,0,0-1.18-.42,2.42,2.42,0,0,0-1.19.3,6.74,6.74,0,0,0-1.29,1v6.21a.29.29,0,0,1-.08.22.38.38,0,0,1-.24.06H105A.24.24,0,0,1,104.7,112.83Zm16,0v-.64c0-.1,0-.15-.08-.15a.29.29,0,0,0-.14.08,5,5,0,0,1-1.09.82,3.08,3.08,0,0,1-1.5.33,3.58,3.58,0,0,1-1.9-.51,3.45,3.45,0,0,1-1.31-1.54,6.56,6.56,0,0,1,0-5,4,4,0,0,1,1.38-1.68,3.52,3.52,0,0,1,2-.59,3.18,3.18,0,0,1,1.28.23,4.19,4.19,0,0,1,1,.66.22.22,0,0,0,.17.08c.07,0,.1-.06.1-.2v-3.93c0-.17.07-.25.22-.25h1.35a.19.19,0,0,1,.16.07.24.24,0,0,1,.06.18v12a.29.29,0,0,1-.08.22.38.38,0,0,1-.24.06h-1.17A.24.24,0,0,1,120.65,112.83Zm-1-7.35a2.4,2.4,0,0,0-2.93.64,4.11,4.11,0,0,0-.71,2.58,3.87,3.87,0,0,0,.69,2.52,2.28,2.28,0,0,0,3.65-.15,1.5,1.5,0,0,0,.3-.87v-3.94A4,4,0,0,0,119.62,105.48Zm7.38,7.79a3,3,0,0,1-2-.66,2.27,2.27,0,0,1-.75-1.78,2.51,2.51,0,0,1,1.18-2.18,6.58,6.58,0,0,1,3.39-.91l1.09-.08c.18,0,.27-.11.27-.26V107a1.75,1.75,0,0,0-.5-1.31,1.94,1.94,0,0,0-1.39-.48,2.54,2.54,0,0,0-2.21,1.25.25.25,0,0,1-.11.13.34.34,0,0,1-.17,0l-1.15-.34a.13.13,0,0,1-.1-.13.59.59,0,0,1,0-.19,3.22,3.22,0,0,1,1.44-1.41,5.12,5.12,0,0,1,2.34-.49,4,4,0,0,1,2.65.75,2.66,2.66,0,0,1,.87,2.11v6a.3.3,0,0,1-.06.22.25.25,0,0,1-.19.06h-1.13q-.24,0-.27-.33l0-.65c0-.08-.06-.13-.11-.13a.4.4,0,0,0-.18.1A4,4,0,0,1,127,113.27Zm2.9-4.62-.91.07a4.87,4.87,0,0,0-2.22.56,1.47,1.47,0,0,0-.82,1.33,1.25,1.25,0,0,0,.47,1,1.94,1.94,0,0,0,1.27.38,2.76,2.76,0,0,0,1.72-.62,1.61,1.61,0,0,0,.72-1.18V108.9C130.13,108.72,130.05,108.64,129.9,108.65Z"/><path class="cls-2" d="M102,24.83a31,31,0,1,0,31,31A31,31,0,0,0,102,24.83Zm14.06,44.23a1.71,1.71,0,0,1-1.37.66,1.74,1.74,0,0,1-1.09-.38L100.91,59.27a1.73,1.73,0,0,1-.66-1.37V37a1.75,1.75,0,0,1,3.5,0V57.06l12,9.54A1.75,1.75,0,0,1,116.06,69.06Z"/></svg>