<svg id="Layer_1" data-name="Layer 1" xmlns="http://www.w3.org/2000/svg" viewBox="0 0 256.13 209.13"><defs><style>.cls-1{fill:#25303c;fill-rule:evenodd;}.cls-2{fill:none;stroke:#faa15c;stroke-miterlimit:10;stroke-width:2px;}.cls-3{fill:#f2e6cb;}</style></defs><path class="cls-1" d="M49.73,9.64H216.1a38.89,38.89,0,0,1,38.78,38.78v81.12a38.89,38.89,0,0,1-38.78,38.78H111.73l-60.68,40-.32-40h-1A38.89,38.89,0,0,1,11,129.54V48.42A38.89,38.89,0,0,1,49.73,9.64Z"/><path class="cls-2" d="M40,1.7H206.4a38.89,38.89,0,0,1,38.78,38.78v81.11a38.89,38.89,0,0,1-38.78,38.79H102l-61,40v-40H40A38.9,38.9,0,0,1,1.24,121.59V40.48A38.9,38.9,0,0,1,40,1.7Z"/><path class="cls-3" d="M96.67,144.84l0-.18,5.16-14.27a.44.44,0,0,1,.16-.25.47.47,0,0,1,.28-.07h2a.48.48,0,0,1,.5.34L110,144.68a.26.26,0,0,1,0,.14c0,.18-.07.26-.22.26h-1.92a.32.32,0,0,1-.34-.24l-1.3-3.6a.34.34,0,0,0-.08-.14.22.22,0,0,0-.16,0h-5.61a.23.23,0,0,0-.24.16l-1.32,3.66c0,.14-.15.2-.34.2H96.91A.21.21,0,0,1,96.67,144.84Zm8.68-5.69c.09,0,.15,0,.17-.07a.31.31,0,0,0,0-.21l-2.18-6.07c0-.1-.09-.14-.15-.14s-.1.05-.14.16l-2.24,6.07,0,.12c0,.1.06.14.18.14Zm17.34-4.69v.91c0,.27-.11.4-.34.4l-.61,0a2.65,2.65,0,0,0-.48.08.74.74,0,0,0-.36.2.31.31,0,0,0-.05.27s.07.18.15.4a2.29,2.29,0,0,1,.14.83,2.87,2.87,0,0,1-1.17,2.36,5.29,5.29,0,0,1-3.37.92,6,6,0,0,0-1.94.23c-.4.14-.61.34-.61.58s.13.35.39.44a5.18,5.18,0,0,0,1.29.17l2.69.16a4.63,4.63,0,0,1,2.73.85,2.48,2.48,0,0,1,.9,2,2.75,2.75,0,0,1-1.41,2.44,7.38,7.38,0,0,1-4,.9,9.16,9.16,0,0,1-4-.71,2.23,2.23,0,0,1-1.39-2.07,1.73,1.73,0,0,1,.48-1.21,4.44,4.44,0,0,1,1.42-.95c.16-.08.16-.16,0-.23a1.44,1.44,0,0,1-1-1.29,1.22,1.22,0,0,1,.46-.91,3.42,3.42,0,0,1,1.26-.71c.08,0,.12-.06.12-.1s0-.1-.12-.14a3.47,3.47,0,0,1-1.36-1.14,2.84,2.84,0,0,1-.44-1.6,2.87,2.87,0,0,1,1.24-2.47,5.92,5.92,0,0,1,3.52-.91,4.73,4.73,0,0,1,3.09.92.55.55,0,0,0,.22.1.35.35,0,0,0,.25-.12,3.39,3.39,0,0,1,.94-.7,2.17,2.17,0,0,1,1-.3A.33.33,0,0,1,122.69,134.46ZM114.9,144a1.85,1.85,0,0,0-.82.18,2.07,2.07,0,0,0-.73.58,1.36,1.36,0,0,0-.29.84c0,1.23,1.27,1.84,3.81,1.84a5.12,5.12,0,0,0,2.4-.45,1.47,1.47,0,0,0,.83-1.37c0-.88-.63-1.36-1.9-1.44Zm3.62-4.89a1.88,1.88,0,0,0,.63-1.53,2,2,0,0,0-.64-1.57,2.83,2.83,0,0,0-1.91-.57,2.88,2.88,0,0,0-1.92.58,1.92,1.92,0,0,0-.69,1.56,1.84,1.84,0,0,0,.68,1.52,3,3,0,0,0,1.93.55A2.93,2.93,0,0,0,118.52,139.1Zm7.93,3a3.27,3.27,0,0,0,2.82,1.61,3.45,3.45,0,0,0,1.66-.39,4,4,0,0,0,1.34-1.19.19.19,0,0,1,.14-.08.25.25,0,0,1,.16,0l1,.48a.19.19,0,0,1,.1.17.35.35,0,0,1-.06.16,5.26,5.26,0,0,1-1.94,1.81,5.8,5.8,0,0,1-2.65.56,5.3,5.3,0,0,1-2.71-.69,4.76,4.76,0,0,1-1.86-1.94,5.82,5.82,0,0,1-.67-2.82,6.25,6.25,0,0,1,.69-3,4.89,4.89,0,0,1,1.87-2,5.45,5.45,0,0,1,5.27,0,4.39,4.39,0,0,1,1.75,1.91,6.72,6.72,0,0,1,.62,3v.08a.62.62,0,0,1,0,.27c0,.06-.12.09-.26.09h-7.48q-.21,0-.21.33A3.18,3.18,0,0,0,126.45,142.12Zm5.09-3.25a.43.43,0,0,0,.27-.06.28.28,0,0,0,.07-.22,3.38,3.38,0,0,0-.33-1.48,2.65,2.65,0,0,0-1-1.1,2.7,2.7,0,0,0-1.51-.42,2.78,2.78,0,0,0-1.6.46,3,3,0,0,0-1.06,1.19,3.37,3.37,0,0,0-.36,1.61Zm4.61,5.89v-10.1q0-.3.27-.3H138c.16,0,.24.08.24.26v1.11c0,.08,0,.13.05.14s.08,0,.15-.08a10.28,10.28,0,0,1,1.86-1.24,4,4,0,0,1,1.76-.4,3.25,3.25,0,0,1,2.38.84,3,3,0,0,1,.86,2.26v7.47c0,.24-.11.36-.34.36h-1.5c-.2,0-.3-.1-.3-.32v-7.08a1.94,1.94,0,0,0-.48-1.41,1.9,1.9,0,0,0-1.43-.5,2.91,2.91,0,0,0-1.42.36,7.81,7.81,0,0,0-1.55,1.16v7.45a.33.33,0,0,1-.09.26.42.42,0,0,1-.3.08h-1.43C136.26,145.08,136.15,145,136.15,144.76Zm19.15,0V144c0-.12,0-.18-.1-.18a.24.24,0,0,0-.16.1,6.45,6.45,0,0,1-1.32,1,3.69,3.69,0,0,1-1.8.4,4.28,4.28,0,0,1-2.28-.62,4.15,4.15,0,0,1-1.57-1.84,8,8,0,0,1,0-5.94,4.84,4.84,0,0,1,1.66-2,4.17,4.17,0,0,1,2.38-.72,3.92,3.92,0,0,1,1.54.29,4.62,4.62,0,0,1,1.25.79.34.34,0,0,0,.21.1q.12,0,.12-.24v-4.72c0-.2.09-.3.26-.3h1.62a.21.21,0,0,1,.19.08.31.31,0,0,1,.07.22v14.37a.33.33,0,0,1-.09.26.4.4,0,0,1-.29.08h-1.4A.28.28,0,0,1,155.3,144.76Zm-1.24-8.82a2.67,2.67,0,0,0-1.29-.31,2.72,2.72,0,0,0-2.23,1.07,5,5,0,0,0-.85,3.1,4.7,4.7,0,0,0,.83,3,2.69,2.69,0,0,0,2.15,1,2.49,2.49,0,0,0,1.29-.34,2.67,2.67,0,0,0,.94-.85,1.79,1.79,0,0,0,.36-1v-4.73A4.59,4.59,0,0,0,154.06,135.94Zm8.85,9.35a3.59,3.59,0,0,1-2.46-.8,2.74,2.74,0,0,1-.9-2.14,3,3,0,0,1,1.43-2.61,7.78,7.78,0,0,1,4.05-1.09l1.32-.1c.22,0,.32-.13.32-.31v-.5a2.07,2.07,0,0,0-.6-1.57,2.3,2.3,0,0,0-1.66-.58,3,3,0,0,0-2.65,1.5.34.34,0,0,1-.14.15.31.31,0,0,1-.21,0l-1.37-.4a.17.17,0,0,1-.13-.17.66.66,0,0,1,.06-.22,3.93,3.93,0,0,1,1.73-1.69,6.07,6.07,0,0,1,2.81-.6,4.77,4.77,0,0,1,3.18.92,3.16,3.16,0,0,1,1.05,2.53v7.14a.42.42,0,0,1-.07.27.33.33,0,0,1-.24.07h-1.35c-.19,0-.3-.13-.33-.4l0-.77c0-.11-.06-.16-.12-.16a.53.53,0,0,0-.22.12A4.87,4.87,0,0,1,162.91,145.29Zm3.48-5.55-1.09.08a5.91,5.91,0,0,0-2.66.68,1.76,1.76,0,0,0-1,1.59,1.5,1.5,0,0,0,.57,1.24,2.32,2.32,0,0,0,1.52.46,3.29,3.29,0,0,0,2.06-.75,1.91,1.91,0,0,0,.87-1.42V140C166.67,139.83,166.58,139.73,166.39,139.74Z"/><path class="cls-3" d="M132.91,39.15a37.2,37.2,0,1,0,37.2,37.2A37.21,37.21,0,0,0,132.91,39.15Zm16.88,53.08a2.09,2.09,0,0,1-2.95.34L131.61,80.49a2.12,2.12,0,0,1-.8-1.65V53.74a2.1,2.1,0,1,1,4.2,0V77.83l14.44,11.45A2.1,2.1,0,0,1,149.79,92.23Z"/></svg>