<svg width="1600" height="913" viewBox="0 0 1600 913" fill="none" xmlns="http://www.w3.org/2000/svg">
<rect width="1600" height="913" fill="url(#paint0_linear)"/>
<g clip-path="url(#clip0)">
<path fill-rule="evenodd" clip-rule="evenodd" d="M1269.45 -11.1934C1299.96 57.8275 1290.22 135.964 1284.38 170.475C1282.43 180.242 1272.05 185.451 1263.61 181.544C1229.84 165.917 1153.88 124.244 1123.37 53.9206C1092.85 -16.4025 1109.08 -94.5394 1118.82 -128.399C1121.42 -137.515 1131.81 -142.073 1140.25 -137.515C1170.11 -121.887 1238.93 -80.8654 1269.45 -11.1934ZM1323.34 -8.58961C1347.36 -32.0307 1375.28 -47.0069 1392.81 -54.8206C1401.25 -58.7274 1411.64 -53.5183 1414.23 -43.7512C1420.08 -15.7522 1426.57 42.1993 1400.6 92.3371C1380.47 131.406 1345.41 157.451 1318.14 172.427C1317.82 172.427 1317.66 172.59 1317.49 172.753C1317.33 172.916 1317.17 173.079 1316.84 173.079C1316.84 171.776 1317.49 169.823 1318.14 167.869C1326.58 135.964 1340.22 70.1984 1320.09 7.03775C1318.14 1.17749 1319.44 -4.68277 1323.34 -8.58961ZM1614.85 312.423L1614.2 311.12C1613.88 310.795 1613.71 310.469 1613.55 310.144C1613.39 309.818 1613.23 309.492 1612.9 309.167L1612.25 308.516C1546.68 218.658 1468.12 199.775 1413.58 199.775C1359.69 199.775 1313.6 217.356 1281.14 234.937C1248.67 217.356 1201.93 199.775 1148.69 199.775C1094.15 199.775 1015.59 218.658 950.016 308.516L949.367 309.818C949.042 310.144 948.88 310.469 948.718 310.795C948.556 311.12 948.393 311.446 948.069 311.771L947.419 313.074C911.061 372.328 894.181 439.395 898.725 512.974C902.621 576.786 922.098 641.9 955.86 701.805C993.516 768.872 1046.11 825.521 1104.54 860.683C1108.43 863.287 1112.98 864.59 1117.52 864.59C1122.72 864.59 1133.11 860.032 1137 857.427L1137 857.427L1137.01 857.427H1159.72C1164.27 857.427 1168.81 854.822 1170.76 850.264C1178.55 834.637 1190.24 820.312 1196.08 820.312C1198.68 820.963 1205.17 826.823 1212.31 848.962C1213.61 854.171 1218.81 857.427 1224 857.427H1248.67L1256.46 878.914C1258.41 884.774 1264.25 888.03 1270.1 887.379C1275.94 886.728 1280.49 882.17 1281.13 876.31L1290.22 773.429L1312.95 940.121C1313.6 946.633 1318.79 951.191 1325.28 951.191L1325.93 950.54C1332.43 949.888 1337.62 944.679 1337.62 938.168V857.427H1362.29C1367.49 857.427 1372.03 854.171 1373.98 848.962C1379.17 833.334 1388.26 816.405 1393.46 813.149C1395.4 815.102 1400.6 822.916 1406.44 847.66C1407.74 853.52 1412.93 857.427 1418.78 857.427H1453.84C1460.33 857.427 1466.17 851.566 1466.17 845.055C1466.17 838.543 1460.98 832.683 1453.84 832.683H1428.51C1423.32 811.196 1413.58 789.057 1395.4 788.406C1375.28 787.103 1360.99 814.451 1353.85 832.683H1325.28H1323.99L1299.96 659.48C1299.31 652.969 1294.12 648.411 1287.63 648.411C1281.13 649.062 1275.94 653.62 1275.29 660.131L1260.36 832.683H1258.41H1233.74C1228.55 818.358 1218.16 796.871 1198.03 795.568C1176.6 794.266 1159.72 819.009 1152.58 832.683H1139.36C1138.07 827.509 1135.42 822.251 1130.51 817.708C1079.87 787.104 1033.12 736.966 1000.01 677.061C970.143 623.668 952.613 565.716 949.367 509.718C945.472 447.209 959.755 389.257 990.919 338.468C1043.51 265.54 1105.84 250.564 1148.69 250.564C1198.68 250.564 1241.53 270.098 1268.15 285.726C1275.94 290.284 1285.68 290.284 1293.47 285.726C1320.74 269.447 1363.59 250.564 1412.93 250.564C1455.78 250.564 1517.46 265.54 1571.35 338.468C1602.52 389.257 1616.15 447.209 1612.9 509.718C1612.69 511.889 1612.54 514.059 1612.4 516.229C1612.11 520.57 1611.82 524.911 1610.96 529.252C1609.66 542.926 1619.4 555.298 1633.03 557.251C1646.66 558.554 1659 548.786 1660.95 535.113C1661.27 531.531 1661.6 527.787 1661.92 524.043C1662.25 520.299 1662.57 516.555 1662.9 512.974C1667.44 439.395 1651.21 372.328 1614.85 312.423Z" fill="white" fill-opacity="0.3"/>
</g>
<defs>
<linearGradient id="paint0_linear" x1="-45.6141" y1="1.43581e-05" x2="789.683" y2="1553.75" gradientUnits="userSpaceOnUse">
<stop stop-color="#E6F3FF"/>
<stop offset="0.484622" stop-color="#E6F3FF"/>
<stop offset="0.875955" stop-color="#B5D8FD"/>
</linearGradient>
<clipPath id="clip0">
<rect width="702" height="913" fill="white" transform="translate(898)"/>
</clipPath>
</defs>
</svg>
