<svg id="Layer_1" data-name="Layer 1" xmlns="http://www.w3.org/2000/svg" xmlns:xlink="http://www.w3.org/1999/xlink" viewBox="0 0 1543.96 592.96"><defs><style>.cls-1{fill:none;clip-rule:evenodd;}.cls-2{fill:#f2e6cb;}.cls-2,.cls-4{fill-rule:evenodd;}.cls-3{clip-path:url(#clip-path);}.cls-4,.cls-5{fill:#fff;opacity:0.5;}</style><clipPath id="clip-path"><path class="cls-1" d="M2,2.2H1542V432a20,20,0,0,1-20,20h-90V590.76L1261.88,452H22A20,20,0,0,1,2,432Z"/></clipPath></defs><path class="cls-2" d="M2,2.2H1542V432a20,20,0,0,1-20,20h-90.49l.49,138.81L1261.88,452H22A20,20,0,0,1,2,432Z"/><g class="cls-3"><path class="cls-4" d="M237.18,383.67H143.56a21.89,21.89,0,0,0-21.83,21.83v54.74a21.89,21.89,0,0,0,21.83,21.83h58.73L239.4,521.5l-2.78-39.43h.56A21.89,21.89,0,0,0,259,460.24V405.5A21.89,21.89,0,0,0,237.18,383.67Z"/><circle class="cls-5" cx="145.22" cy="458.23" r="50.78" transform="translate(-15.94 5.36) rotate(-2.01)"/><path class="cls-4" d="M36.38,322.93A45.55,45.55,0,0,0-4,347.36a34.49,34.49,0,0,0-13.08-2.56,34.62,34.62,0,0,0-34.62,34.62A34.62,34.62,0,0,0-17.07,414H86.18a34.62,34.62,0,1,0-10-67.76A45.55,45.55,0,0,0,36.38,322.93Z"/><circle class="cls-5" cx="86.07" cy="556.91" r="10.33" transform="translate(-375.77 234.02) rotate(-46.26)"/><path class="cls-4" d="M107,545.68a20,20,0,1,1,20-20A20.08,20.08,0,0,1,107,545.68Z"/><path class="cls-4" d="M-11,332.65a20.08,20.08,0,0,1-20-20,20.08,20.08,0,0,1,20-20.05A20.08,20.08,0,0,1,9,312.61,20.08,20.08,0,0,1-11,332.65Z"/><path class="cls-4" d="M148.77,394.81c40.25,0,72.88-19.58,72.88-43.73,0-10.89-6.62-20.84-17.59-28.49,3.25-8.76,18.18-41.22,63.3-49-25.25-8.59-94.92,6.72-109.12,34.16-3.1-.24-6.26-.37-9.47-.37-40.26,0-72.89,19.58-72.89,43.74S108.51,394.81,148.77,394.81Z"/><path class="cls-4" d="M81.25,394.6H35.87A27.2,27.2,0,0,0,8.76,421.72v7.5l-75.33,72.39L10,475.18a27.21,27.21,0,0,0,25.87,19H81.25a27.2,27.2,0,0,0,27.12-27.12V421.72A27.2,27.2,0,0,0,81.25,394.6Z"/><path class="cls-4" d="M80.26,190.19H-13.36A21.89,21.89,0,0,0-35.19,212v54.74a21.89,21.89,0,0,0,21.83,21.83H45.37L82.48,328,79.7,288.59h.56a21.89,21.89,0,0,0,21.82-21.83V212A21.89,21.89,0,0,0,80.26,190.19Z"/><circle class="cls-5" cx="-11.7" cy="264.75" r="50.78" transform="translate(-9.27 -0.25) rotate(-2.01)"/><path class="cls-4" d="M-8.15,201.33c40.25,0,72.88-19.58,72.88-43.73,0-10.89-6.62-20.84-17.59-28.49,3.25-8.76,18.18-41.22,63.3-49C85.19,71.48,15.52,86.79,1.32,114.23c-3.1-.24-6.26-.37-9.47-.37C-48.41,113.86-81,133.44-81,157.6S-48.41,201.33-8.15,201.33Z"/><path class="cls-4" d="M128.1,292.43a20,20,0,1,1,20-20A20.08,20.08,0,0,1,128.1,292.43Z"/><path class="cls-4" d="M288.31,354.88h93.61a21.89,21.89,0,0,1,21.83,21.83v54.75a21.89,21.89,0,0,1-21.83,21.82H323.2l-37.12,39.43,2.79-39.43h-.56a21.89,21.89,0,0,1-21.83-21.82V376.71A21.89,21.89,0,0,1,288.31,354.88Z"/><circle class="cls-5" cx="380.26" cy="429.44" r="50.78" transform="matrix(0.03, -1, 1, 0.03, -62.23, 794.44)"/><path class="cls-4" d="M489.11,294.14a45.54,45.54,0,0,1,40.36,24.43,34.62,34.62,0,1,1,13.09,66.68H439.3a34.62,34.62,0,1,1,10-67.76A45.53,45.53,0,0,1,489.11,294.14Z"/><circle class="cls-5" cx="439.41" cy="528.12" r="10.33" transform="translate(-243.2 450.42) rotate(-43.74)"/><path class="cls-4" d="M418.45,516.89a20,20,0,1,0-20.05-20.05A20.08,20.08,0,0,0,418.45,516.89Z"/><path class="cls-4" d="M536.48,303.86a20,20,0,1,0-20-20A20.08,20.08,0,0,0,536.48,303.86Z"/><path class="cls-4" d="M376.72,366c-40.26,0-72.89-19.58-72.89-43.73,0-10.89,6.63-20.84,17.59-28.49-3.25-8.76-18.17-41.21-63.3-49,25.25-8.59,94.92,6.72,109.12,34.16q4.65-.36,9.48-.36c40.25,0,72.88,19.57,72.88,43.73S417,366,376.72,366Z"/><path class="cls-4" d="M444.23,365.82h45.38a27.2,27.2,0,0,1,27.12,27.11v7.5l75.32,72.4-76.56-26.44a27.23,27.23,0,0,1-25.88,19H444.23a27.19,27.19,0,0,1-27.12-27.12V392.93A27.19,27.19,0,0,1,444.23,365.82Z"/><path class="cls-4" d="M1395.39,492.28H1489a21.89,21.89,0,0,1,21.82,21.82v54.75A21.89,21.89,0,0,1,1489,590.67h-58.73l-37.12,39.44,2.79-39.44h-.56a21.89,21.89,0,0,1-21.83-21.82V514.1A21.89,21.89,0,0,1,1395.39,492.28Z"/><path class="cls-4" d="M851.58,410.31H758a21.89,21.89,0,0,0-21.83,21.82v54.75A21.89,21.89,0,0,0,758,508.7h58.73l37.11,39.44L851,508.7h.56a21.89,21.89,0,0,0,21.82-21.82V432.13A21.89,21.89,0,0,0,851.58,410.31Z"/><circle class="cls-5" cx="759.62" cy="484.87" r="50.78" transform="translate(-16.5 26.87) rotate(-2.01)"/><path class="cls-4" d="M650.78,349.57A45.54,45.54,0,0,0,610.41,374a34.63,34.63,0,1,0-13.08,66.69H700.58a34.63,34.63,0,1,0-10-67.77A45.52,45.52,0,0,0,650.78,349.57Z"/><circle class="cls-5" cx="700.47" cy="583.54" r="10.33" transform="translate(-205.43 686.09) rotate(-46.26)"/><path class="cls-4" d="M721.43,572.31a20,20,0,1,1,20.05-20A20.08,20.08,0,0,1,721.43,572.31Z"/><path class="cls-4" d="M603.4,359.29a20,20,0,1,1,20-20.05A20.08,20.08,0,0,1,603.4,359.29Z"/><path class="cls-4" d="M763.17,421.44c40.25,0,72.88-19.58,72.88-43.73,0-10.88-6.62-20.84-17.59-28.49,3.25-8.75,18.18-41.21,63.3-49-25.25-8.58-94.92,6.73-109.12,34.17-3.1-.24-6.26-.37-9.47-.37-40.26,0-72.89,19.58-72.89,43.73S722.91,421.44,763.17,421.44Z"/><path class="cls-4" d="M695.65,421.24H650.27a27.19,27.19,0,0,0-27.11,27.12v7.49l-75.33,72.4,76.56-26.43a27.22,27.22,0,0,0,25.88,19h45.38a27.19,27.19,0,0,0,27.12-27.11V448.36A27.19,27.19,0,0,0,695.65,421.24Z"/><path class="cls-4" d="M935.3,380.08h93.62a21.89,21.89,0,0,1,21.82,21.83v54.75a21.89,21.89,0,0,1-21.82,21.82H970.19l-37.11,39.43,2.78-39.43h-.56a21.89,21.89,0,0,1-21.83-21.82V401.91A21.9,21.9,0,0,1,935.3,380.08Z"/><circle class="cls-5" cx="1027.25" cy="454.64" r="50.78" transform="matrix(0.03, -1, 1, 0.03, 536.94, 1465.36)"/><path class="cls-4" d="M1136.1,319.34a45.56,45.56,0,0,1,40.37,24.43,34.62,34.62,0,1,1,13.08,66.68H1086.29a34.62,34.62,0,1,1,10-67.76A45.54,45.54,0,0,1,1136.1,319.34Z"/><circle class="cls-5" cx="1086.41" cy="553.32" r="10.33" transform="translate(-81.03 904.78) rotate(-43.74)"/><path class="cls-4" d="M1065.44,542.09a20,20,0,1,0-20-20.05A20.09,20.09,0,0,0,1065.44,542.09Z"/><path class="cls-4" d="M1183.48,329.06a20,20,0,1,0-20-20A20.08,20.08,0,0,0,1183.48,329.06Z"/><path class="cls-4" d="M1023.71,391.22c-40.25,0-72.89-19.58-72.89-43.73,0-10.88,6.63-20.84,17.59-28.49-3.24-8.76-18.17-41.21-63.29-49,25.24-8.59,94.91,6.72,109.12,34.16q4.65-.36,9.47-.36c40.25,0,72.89,19.58,72.89,43.73S1064,391.22,1023.71,391.22Z"/><path class="cls-4" d="M1091.22,391h45.38a27.19,27.19,0,0,1,27.12,27.11v7.5l75.33,72.4-76.57-26.44a27.22,27.22,0,0,1-25.88,19h-45.38a27.19,27.19,0,0,1-27.11-27.12V418.13A27.19,27.19,0,0,1,1091.22,391Z"/><path class="cls-4" d="M882.4,460.8A50.79,50.79,0,1,1,933.18,410,50.89,50.89,0,0,1,882.4,460.8Zm-48.83,47.89A10.33,10.33,0,1,0,823.24,519,10.35,10.35,0,0,0,833.57,508.69Zm30.68-31.28a20,20,0,1,0-20,20A20.08,20.08,0,0,0,864.25,477.41Z"/><path class="cls-4" d="M1311.65,517.18c3.25-8.76,18.18-41.21,63.3-49-25.25-8.59-94.92,6.72-109.12,34.16C1262.73,502.06,1322.62,524.83,1311.65,517.18Z"/><path class="cls-4" d="M1497.13,348.35h-93.62a21.89,21.89,0,0,0-21.82,21.82v54.75a21.89,21.89,0,0,0,21.82,21.83h58.73l37.12,39.43-2.79-39.43h.56A21.9,21.9,0,0,0,1519,424.92V370.17A21.89,21.89,0,0,0,1497.13,348.35Z"/><circle class="cls-5" cx="1405.18" cy="422.91" r="50.78" transform="translate(-13.94 49.42) rotate(-2.01)"/><path class="cls-4" d="M1296.33,287.61A45.54,45.54,0,0,0,1256,312a34.62,34.62,0,1,0-13.09,66.68h103.26a34.63,34.63,0,1,0-10-67.77A45.54,45.54,0,0,0,1296.33,287.61Z"/><circle class="cls-5" cx="1346.03" cy="521.58" r="10.33" transform="translate(38.52 1133.34) rotate(-46.26)"/><path class="cls-4" d="M1367,510.35a20,20,0,1,1,20-20A20.08,20.08,0,0,1,1367,510.35Z"/><path class="cls-4" d="M1249,297.33a20,20,0,1,1,20-20.05A20.09,20.09,0,0,1,1249,297.33Z"/><path class="cls-4" d="M1408.72,359.48c40.26,0,72.89-19.57,72.89-43.73,0-10.88-6.63-20.83-17.59-28.49,3.25-8.75,18.17-41.21,63.3-49-25.25-8.58-94.92,6.73-109.12,34.17-3.1-.24-6.27-.37-9.48-.37-40.25,0-72.88,19.58-72.88,43.73S1368.47,359.48,1408.72,359.48Z"/><path class="cls-4" d="M1341.21,359.28h-45.38a27.2,27.2,0,0,0-27.12,27.12v7.5l-75.33,72.39L1270,439.86a27.22,27.22,0,0,0,25.88,19h45.38a27.2,27.2,0,0,0,27.12-27.11V386.4A27.2,27.2,0,0,0,1341.21,359.28Z"/><path class="cls-4" d="M1558.59,168.68a45.54,45.54,0,0,0-40.36,24.43,34.62,34.62,0,1,0-13.09,66.68H1608.4a34.62,34.62,0,1,0-10-67.77A45.54,45.54,0,0,0,1558.59,168.68Z"/><path class="cls-4" d="M1511.22,178.4a20,20,0,1,1,20-20A20.08,20.08,0,0,1,1511.22,178.4Z"/><path class="cls-4" d="M1603.47,240.35h-45.38A27.21,27.21,0,0,0,1531,267.47V275l-75.33,72.39,76.57-26.43a27.23,27.23,0,0,0,25.88,19h45.38a27.21,27.21,0,0,0,27.12-27.12V267.47A27.21,27.21,0,0,0,1603.47,240.35Z"/></g></svg>