<svg id="Layer_1" data-name="Layer 1" xmlns="http://www.w3.org/2000/svg" viewBox="0 0 1090 174.16"><defs><style>.cls-1{fill:#f5ecd8;}.cls-1,.cls-2{fill-rule:evenodd;}.cls-2{fill:none;stroke:#5b412a;stroke-miterlimit:10;stroke-width:2.07px;}</style></defs><path class="cls-1" d="M1059.61,14.71H44.14c-14.86,0-26.91,11.19-26.91,25V97c0,13.81,12.05,25,26.91,25H124.5l-.51,50.2L215.93,122h843.68c14.86,0,26.91-11.19,26.91-25V39.71C1086.52,25.9,1074.47,14.71,1059.61,14.71Z"/><path class="cls-2" d="M1045.86,1.92H30.39c-14.86,0-26.91,11.19-26.91,25V84.25c0,13.81,12,25,26.91,25h80.36l-.52,50.2,92-50.2h843.68c14.86,0,26.91-11.19,26.91-25V26.92C1072.77,13.11,1060.72,1.92,1045.86,1.92Z"/></svg>