<svg id="Layer_1" data-name="Layer 1" xmlns="http://www.w3.org/2000/svg" viewBox="0 0 142 63"><defs><style>.cls-1{fill:#532683;}.cls-2{fill:#50b848;}</style></defs><path class="cls-1" d="M.68,51.54A2.81,2.81,0,0,0,2.13,52c.83,0,1.31-.44,1.31-1.07S3.11,50,2.26,49.64c-1-.37-1.66-.91-1.66-1.79a1.81,1.81,0,0,1,2-1.71A2.8,2.8,0,0,1,4,46.45l-.22.66a2.39,2.39,0,0,0-1.19-.29c-.86,0-1.18.51-1.18.94,0,.58.38.87,1.25,1.21,1.06.41,1.59.92,1.59,1.84s-.71,1.82-2.19,1.82a3.27,3.27,0,0,1-1.6-.41l.21-.68Zm8.7-.25V48H8.56v2.76a1.12,1.12,0,0,1-.08.42A1.18,1.18,0,0,1,7.4,52c-.73,0-1-.59-1-1.44V48H5.58v2.64c0,1.57.84,2,1.55,2a1.67,1.67,0,0,0,1.49-.84h0l0,.74h.73c0-.36,0-.77,0-1.24ZM11,49.42v3.11h.82V50.12a2.25,2.25,0,0,1,0-.38,1.14,1.14,0,0,1,1.1-1,1.23,1.23,0,0,1,.28,0v-.78l-.23,0a1.36,1.36,0,0,0-1.25,1h0l0-.89H11c0,.42,0,.87,0,1.4ZM14.84,48H14l1.72,4.51h.78L18.23,48h-.85l-.88,2.52c-.15.42-.28.8-.38,1.17h0c-.09-.37-.22-.75-.36-1.17L14.84,48ZM22,49.83h-2.4a1.35,1.35,0,0,1,1.26-1.32A1.17,1.17,0,0,1,22,49.83Zm-2.41.59h3.17a1.81,1.81,0,0,0,0-.38A1.9,1.9,0,0,0,21,47.92a2.19,2.19,0,0,0-2.11,2.43,2.1,2.1,0,0,0,2.22,2.28,3.71,3.71,0,0,0,1.51-.29l-.15-.59a2.78,2.78,0,0,1-1.25.24,1.45,1.45,0,0,1-1.55-1.57ZM24.38,48h-.89l1.66,4.15a.51.51,0,0,1,.06.22.45.45,0,0,1-.06.19,2.75,2.75,0,0,1-.69.92,2.29,2.29,0,0,1-.72.4l.21.68a2.42,2.42,0,0,0,1-.52,7,7,0,0,0,1.55-2.83L27.73,48h-.87L26,50.66c-.11.33-.21.68-.29,1h0c-.07-.27-.19-.63-.3-.93l-1-2.66Zm4.18,3.68-.2.61a2.56,2.56,0,0,0,1.27.32c1.06,0,1.68-.56,1.68-1.36s-.41-1.06-1.18-1.35c-.59-.23-.85-.4-.85-.77s.26-.62.74-.62a1.8,1.8,0,0,1,.93.27l.19-.6a2.16,2.16,0,0,0-1.1-.28,1.39,1.39,0,0,0-1.55,1.33c0,.54.38,1,1.2,1.27.59.23.83.43.83.82s-.28.68-.87.68a2.3,2.3,0,0,1-1.09-.32Zm8.66-1.47V51a.87.87,0,0,1,0,.26,1.14,1.14,0,0,1-1.11.75.71.71,0,0,1-.76-.78c0-.87,1-1,1.91-1ZM38,51.45V49.76c0-.89-.33-1.84-1.71-1.84a2.9,2.9,0,0,0-1.5.4l.19.55a2.15,2.15,0,0,1,1.18-.34.92.92,0,0,1,1,1v.1c-1.74,0-2.71.58-2.71,1.68a1.28,1.28,0,0,0,1.38,1.29A1.71,1.71,0,0,0,37.25,52h0l.07.57h.74A7.08,7.08,0,0,1,38,51.45Zm1.58-2.21v3.29h.82V49.82a1.17,1.17,0,0,1,1.15-1.22c.78,0,1,.6,1,1.33v2.6h.82V49.84c0-1.54-1-1.92-1.6-1.92a1.67,1.67,0,0,0-1.49.84h0l0-.74h-.73c0,.37,0,.74,0,1.22Zm8.5.61v.79a1.29,1.29,0,0,1,0,.35,1.24,1.24,0,0,1-1.2,1c-.88,0-1.34-.76-1.34-1.67s.51-1.73,1.36-1.73a1.21,1.21,0,0,1,1.18.94,1.32,1.32,0,0,1,0,.34Zm.81-3.94h-.81V48.6h0a1.52,1.52,0,0,0-1.36-.68,2.17,2.17,0,0,0-2,2.42,2.06,2.06,0,0,0,1.94,2.29,1.63,1.63,0,0,0,1.52-.88h0l0,.78h.72c0-.31,0-.77,0-1.17V45.91Zm4.69,1v5.59h.82V46.94h1.92v-.69H51.68v.69Zm3.51,3.34c0-.85.42-1.74,1.38-1.74s1.35,1,1.35,1.72c0,1-.59,1.76-1.37,1.76s-1.36-.75-1.36-1.74Zm3.57,0a2.14,2.14,0,0,0-2.17-2.32,2.21,2.21,0,0,0-2.24,2.39,2.15,2.15,0,0,0,2.16,2.32,2.21,2.21,0,0,0,2.25-2.39Zm1.8,0c0-.85.42-1.74,1.38-1.74s1.35,1,1.35,1.72c0,1-.59,1.76-1.37,1.76s-1.36-.75-1.36-1.74Zm3.57,0a2.14,2.14,0,0,0-2.17-2.32,2.21,2.21,0,0,0-2.24,2.39,2.15,2.15,0,0,0,2.16,2.32A2.21,2.21,0,0,0,66,50.24Zm1.28-4.33v6.62h.83V45.91Zm2.34,5.79-.19.61a2.54,2.54,0,0,0,1.27.32c1.05,0,1.67-.56,1.67-1.36s-.41-1.06-1.18-1.35c-.59-.23-.85-.4-.85-.77s.26-.62.75-.62a1.76,1.76,0,0,1,.92.27l.2-.6a2.22,2.22,0,0,0-1.1-.28,1.4,1.4,0,0,0-1.56,1.33c0,.54.38,1,1.2,1.27.6.23.83.43.83.82s-.28.68-.87.68a2.34,2.34,0,0,1-1.09-.32Zm7.27-4.76-.8.24V48h-.7v.62h.7V51.1a1.82,1.82,0,0,0,.32,1.19,1.19,1.19,0,0,0,.89.34,2.42,2.42,0,0,0,.72-.11l0-.63a1.41,1.41,0,0,1-.47.06c-.46,0-.62-.32-.62-.88V48.64h1.18V48H76.93V46.94Zm2.81,3.34c0-.85.42-1.74,1.38-1.74s1.35,1,1.35,1.72c0,1-.59,1.76-1.37,1.76s-1.36-.75-1.36-1.74Zm3.57,0a2.14,2.14,0,0,0-2.17-2.32,2.21,2.21,0,0,0-2.24,2.39,2.15,2.15,0,0,0,2.16,2.32,2.21,2.21,0,0,0,2.25-2.39ZM3.87,59.79H2L2.58,58c.13-.38.23-.77.32-1.14h0c.09.37.19.74.33,1.15l.62,1.81Zm-2.07.63H4l.67,2h.87L3.42,56.12h-1L.31,62.4h.84l.65-2Zm7.88-.7v.78a1.32,1.32,0,0,1,0,.36,1.24,1.24,0,0,1-1.2,1c-.88,0-1.34-.76-1.34-1.67s.51-1.73,1.36-1.73a1.2,1.2,0,0,1,1.18.94,1.32,1.32,0,0,1,0,.34Zm.81-3.94H9.68v2.69h0a1.52,1.52,0,0,0-1.36-.68,2.17,2.17,0,0,0-2,2.42A2.06,2.06,0,0,0,8.21,62.5a1.62,1.62,0,0,0,1.52-.89h0l0,.79h.72c0-.31,0-.77,0-1.17V55.78Zm1.94,2.11h-.88l1.71,4.51h.79l1.77-4.51H15l-.87,2.52c-.15.42-.28.79-.39,1.17h0c-.1-.38-.22-.75-.37-1.17l-.88-2.52Zm6.75,2.2v.79a1.3,1.3,0,0,1,0,.26,1.14,1.14,0,0,1-1.11.75.72.72,0,0,1-.77-.78c0-.87,1-1,1.91-1Zm.8,1.23V59.63c0-.9-.34-1.84-1.72-1.84a2.93,2.93,0,0,0-1.49.39l.19.55a2.17,2.17,0,0,1,1.18-.33.92.92,0,0,1,1,1v.1c-1.74,0-2.71.58-2.71,1.67a1.29,1.29,0,0,0,1.38,1.3,1.68,1.68,0,0,0,1.38-.67h0l.06.57H20A7.16,7.16,0,0,1,20,61.32Zm1.57-2.21V62.4h.82V59.69a1.18,1.18,0,0,1,.06-.39,1.2,1.2,0,0,1,1.1-.84c.77,0,1,.61,1,1.34v2.6h.82V59.71c0-1.54-1-1.92-1.59-1.92a1.66,1.66,0,0,0-1.49.84h0l-.05-.74h-.73c0,.37,0,.74,0,1.22Zm8.64,3.13-.14-.62a2.22,2.22,0,0,1-1,.22,1.7,1.7,0,0,1,0-3.39,2,2,0,0,1,.95.21l.19-.62a2.44,2.44,0,0,0-1.14-.25,2.3,2.3,0,0,0-2.42,2.41,2.14,2.14,0,0,0,2.25,2.3,3.19,3.19,0,0,0,1.29-.26Zm4-2.54h-2.4a1.35,1.35,0,0,1,1.26-1.32,1.17,1.17,0,0,1,1.14,1.32Zm-2.41.59H35a1.81,1.81,0,0,0,0-.38,1.9,1.9,0,0,0-1.86-2.12A2.19,2.19,0,0,0,31,60.22a2.1,2.1,0,0,0,2.22,2.28,3.67,3.67,0,0,0,1.51-.29l-.15-.59a2.93,2.93,0,0,1-1.25.24,1.45,1.45,0,0,1-1.55-1.57Zm7.53-1.07V56.78a3.2,3.2,0,0,1,.77-.07c.88,0,1.48.4,1.48,1.24S41,59.28,40,59.28a2.68,2.68,0,0,1-.68-.06Zm-.81-3V62.4h.81V59.88a3.15,3.15,0,0,0,2.58-.63,1.9,1.9,0,0,0,.48-1.35,1.71,1.71,0,0,0-.55-1.31,2.6,2.6,0,0,0-1.76-.52,10.2,10.2,0,0,0-1.56.12Zm7.32,3.9v.79a.87.87,0,0,1,0,.26,1.14,1.14,0,0,1-1.11.75.71.71,0,0,1-.76-.78c0-.87,1-1,1.91-1Zm.79,1.23V59.63c0-.9-.33-1.84-1.71-1.84a2.93,2.93,0,0,0-1.49.39l.18.55a2.23,2.23,0,0,1,1.19-.33.92.92,0,0,1,1,1v.1c-1.74,0-2.71.58-2.71,1.67a1.29,1.29,0,0,0,1.38,1.3,1.69,1.69,0,0,0,1.38-.67h0l.06.57h.74a7.08,7.08,0,0,1-.07-1.08Zm2.53-4.51-.8.24v.84h-.7v.62h.7V61a1.82,1.82,0,0,0,.31,1.19,1.2,1.2,0,0,0,.89.34,2.44,2.44,0,0,0,.73-.11l0-.63a1.43,1.43,0,0,1-.48.06c-.45,0-.61-.32-.61-.88V58.51h1.17v-.62H49.16V56.81Zm2.35,5.59h.82V57.89h-.82V62.4Zm.91-5.78a.49.49,0,0,0-.5-.51.49.49,0,0,0-.51.51.48.48,0,0,0,.49.5.48.48,0,0,0,.52-.5ZM56.8,59.7H54.41a1.34,1.34,0,0,1,1.25-1.32A1.16,1.16,0,0,1,56.8,59.7Zm-2.4.59h3.17a3.32,3.32,0,0,0,0-.38,1.9,1.9,0,0,0-1.86-2.12,2.19,2.19,0,0,0-2.12,2.43,2.1,2.1,0,0,0,2.22,2.28,3.67,3.67,0,0,0,1.51-.29l-.15-.59a2.93,2.93,0,0,1-1.25.24,1.44,1.44,0,0,1-1.54-1.57Zm4.46-1.18V62.4h.82V59.69a1.18,1.18,0,0,1,.06-.39,1.2,1.2,0,0,1,1.1-.84c.77,0,1,.61,1,1.34v2.6h.82V59.71c0-1.54-1-1.92-1.59-1.92a1.66,1.66,0,0,0-1.49.84h0l-.05-.74h-.73c0,.37,0,.74,0,1.22Zm6.38-2.3-.8.24v.84h-.7v.62h.7V61a1.82,1.82,0,0,0,.31,1.19,1.2,1.2,0,0,0,.89.34,2.36,2.36,0,0,0,.72-.11l0-.63a1.43,1.43,0,0,1-.48.06c-.45,0-.61-.32-.61-.88V58.51h1.17v-.62H65.24V56.81Zm4.2,2.77h-2.3v.6h2.3v-.6Zm5.75,2.62L75,61.55a3.21,3.21,0,0,1-1.33.26,2.27,2.27,0,0,1-2.4-2.53,2.34,2.34,0,0,1,2.45-2.59A3,3,0,0,1,75,57l.21-.66A3.42,3.42,0,0,0,73.72,56a3.12,3.12,0,0,0-3.28,3.3,2.93,2.93,0,0,0,3.09,3.19,4,4,0,0,0,1.66-.3Zm4-2.5H76.8a1.35,1.35,0,0,1,1.26-1.32A1.17,1.17,0,0,1,79.2,59.7Zm-2.41.59H80a1.81,1.81,0,0,0,0-.38,1.9,1.9,0,0,0-1.86-2.12A2.19,2.19,0,0,0,76,60.22a2.1,2.1,0,0,0,2.22,2.28,3.67,3.67,0,0,0,1.51-.29l-.15-.59a2.93,2.93,0,0,1-1.25.24,1.45,1.45,0,0,1-1.55-1.57Zm4.47-1.18V62.4h.82V59.69a1.22,1.22,0,0,1,1.16-1.23c.77,0,1,.61,1,1.34v2.6h.82V59.71c0-1.54-1-1.92-1.59-1.92a1.69,1.69,0,0,0-1.5.84h0l0-.74h-.73c0,.37,0,.74,0,1.22Zm6.37-2.3-.8.24v.84h-.7v.62h.7V61a1.82,1.82,0,0,0,.32,1.19,1.19,1.19,0,0,0,.89.34,2.42,2.42,0,0,0,.72-.11l0-.63a1.52,1.52,0,0,1-.48.06c-.46,0-.62-.32-.62-.88V58.51h1.18v-.62H87.63V56.81Zm5.16,2.89h-2.4a1.35,1.35,0,0,1,1.26-1.32,1.17,1.17,0,0,1,1.14,1.32Zm-2.41.59h3.17a1.81,1.81,0,0,0,0-.38,1.9,1.9,0,0,0-1.86-2.12,2.19,2.19,0,0,0-2.12,2.43,2.1,2.1,0,0,0,2.22,2.28,3.67,3.67,0,0,0,1.51-.29l-.15-.59a2.93,2.93,0,0,1-1.25.24,1.45,1.45,0,0,1-1.55-1.57Zm4.47-1V62.4h.82V60a2.25,2.25,0,0,1,0-.38,1.13,1.13,0,0,1,1.1-1,1.23,1.23,0,0,1,.28,0v-.78l-.23,0a1.38,1.38,0,0,0-1.26,1h0l0-.89h-.72c0,.42,0,.87,0,1.4Zm6.07.41h-2.4a1.35,1.35,0,0,1,1.26-1.32,1.17,1.17,0,0,1,1.14,1.32Zm-2.41.59h3.17a1.81,1.81,0,0,0,0-.38,1.9,1.9,0,0,0-1.87-2.12,2.19,2.19,0,0,0-2.11,2.43A2.1,2.1,0,0,0,100,62.5a3.71,3.71,0,0,0,1.51-.29l-.15-.59a2.93,2.93,0,0,1-1.25.24,1.45,1.45,0,0,1-1.55-1.57Zm7.54-.57v.78a1.32,1.32,0,0,1,0,.36,1.23,1.23,0,0,1-1.2,1c-.87,0-1.33-.76-1.33-1.67s.5-1.73,1.35-1.73a1.19,1.19,0,0,1,1.18.94,1.32,1.32,0,0,1,0,.34Zm.81-3.94h-.81v2.69h0a1.51,1.51,0,0,0-1.36-.68,2.16,2.16,0,0,0-2,2.42,2.06,2.06,0,0,0,1.94,2.29,1.62,1.62,0,0,0,1.52-.89h0l0,.79h.73c0-.31,0-.77,0-1.17V55.78Zm8.26,6.42-.16-.65a3.21,3.21,0,0,1-1.33.26,2.27,2.27,0,0,1-2.4-2.53,2.34,2.34,0,0,1,2.45-2.59,3,3,0,0,1,1.25.26l.21-.66a3.42,3.42,0,0,0-1.49-.28,3.12,3.12,0,0,0-3.28,3.3,2.93,2.93,0,0,0,3.09,3.19,4,4,0,0,0,1.66-.3Zm3.56-2.11v.79a.87.87,0,0,1,0,.26,1.13,1.13,0,0,1-1.1.75.72.72,0,0,1-.77-.78c0-.87,1-1,1.91-1Zm.79,1.23V59.63c0-.9-.33-1.84-1.71-1.84a2.93,2.93,0,0,0-1.49.39l.18.55a2.23,2.23,0,0,1,1.19-.33.92.92,0,0,1,1,1v.1c-1.74,0-2.71.58-2.71,1.67a1.29,1.29,0,0,0,1.38,1.3,1.69,1.69,0,0,0,1.38-.67h0l.06.57h.74a7.08,7.08,0,0,1-.07-1.08Zm1.58-2V62.4h.82V60a2.25,2.25,0,0,1,0-.38,1.13,1.13,0,0,1,1.1-1,1.23,1.23,0,0,1,.28,0v-.78l-.23,0a1.38,1.38,0,0,0-1.26,1h0l0-.89H121c0,.42,0,.87,0,1.4Zm6.07.41h-2.4A1.35,1.35,0,0,1,126,58.38a1.17,1.17,0,0,1,1.14,1.32Zm-2.41.59h3.17a1.81,1.81,0,0,0,0-.38A1.9,1.9,0,0,0,126,57.79a2.19,2.19,0,0,0-2.11,2.43,2.1,2.1,0,0,0,2.22,2.28,3.67,3.67,0,0,0,1.51-.29l-.15-.59a2.93,2.93,0,0,1-1.25.24,1.45,1.45,0,0,1-1.55-1.57Z"/><path class="cls-1" d="M29.8,14.87v7.61a13.9,13.9,0,0,0-3.51-3.28,6.85,6.85,0,0,0-3.59-.92,7.08,7.08,0,0,0-5.36,2.26,8,8,0,0,0-2.13,5.67,8.11,8.11,0,0,0,2.05,5.72,6.92,6.92,0,0,0,5.32,2.24,7.29,7.29,0,0,0,3.63-.89,14.42,14.42,0,0,0,3.59-3.36v7.55a15,15,0,0,1-7,1.81,13.35,13.35,0,0,1-9.61-3.71,12.41,12.41,0,0,1-3.86-9.28,12.56,12.56,0,0,1,3.91-9.36,13.26,13.26,0,0,1,9.61-3.81,14.49,14.49,0,0,1,6.92,1.75ZM65.3.5V38.57H71v-12q0-4.57,1.19-6.45c.82-1.24,2.22-1.86,4.22-1.86a4.09,4.09,0,0,1,3.4,1.34,7,7,0,0,1,1,4.3V38.57H86.6V23.39c0-3.46-.71-6-2.13-7.55a8.73,8.73,0,0,0-6.71-2.72A9.85,9.85,0,0,0,71,15.87V.5Zm45.8,25.84a8.07,8.07,0,0,1-2,5.59,6.16,6.16,0,0,1-4.9,2.24A6.45,6.45,0,0,1,99.12,32a8.49,8.49,0,0,1-2-5.75,8.29,8.29,0,0,1,2-5.74,6.54,6.54,0,0,1,5.11-2.19,6.28,6.28,0,0,1,4.94,2.26,8.62,8.62,0,0,1,1.93,5.8ZM97.5,52.76v-17a10.84,10.84,0,0,0,16.11-.21,13.36,13.36,0,0,0,3.33-9.28,13.57,13.57,0,0,0-3.35-9.43,10.7,10.7,0,0,0-8.42-3.76A10.58,10.58,0,0,0,97.5,16.5V13.81H91.78V52.76ZM135.77,18c-1.55-3.27-3.9-4.91-7.07-4.91a7.79,7.79,0,0,0-5.49,2.11A7.05,7.05,0,0,0,121,20.57a6,6,0,0,0,1.29,4A10.78,10.78,0,0,0,125.8,27l1.75.84c.58.27,1.16.55,1.73.84,1.49.88,2.24,1.83,2.24,2.85,0,1.76-1,2.64-2.9,2.64a3.53,3.53,0,0,1-2.49-1,10.73,10.73,0,0,1-1.55-2.26L119.7,33.2q2.6,6.07,8.82,6.08a9,9,0,0,0,6.2-2.28,7.78,7.78,0,0,0,2.65-6,6.17,6.17,0,0,0-1.58-4.44q-1.57-1.65-6.13-3.61-3.3-1.39-3.3-2.81a1.76,1.76,0,0,1,.56-1.34,1.93,1.93,0,0,1,1.35-.52c1.1,0,2,.76,2.77,2.26L135.77,18Zm3.12-2.81v-.68h.61c.33,0,.43.18.43.33,0,.31-.3.35-.48.35Zm0,1.42v-1h.62l.41,1h.57L140,15.55a.69.69,0,0,0,.47-.67c0-.75-.81-.75-1-.75h-1.17v2.51Zm.46.67a1.93,1.93,0,1,1,1.92-1.92,1.92,1.92,0,0,1-1.92,1.92Zm0-4.27a2.35,2.35,0,1,0,2.34,2.35A2.34,2.34,0,0,0,139.35,13Z"/><path class="cls-2" d="M46.17,34.66c7.21,1.94,12,.26,14.11-2.3v6.1h-7V35.87a11,11,0,0,1-16.09-.41,12.22,12.22,0,0,1-1-1.34,8,8,0,0,1,1.55-.31,25,25,0,0,1,8.46.85ZM42.36,19.73a6.26,6.26,0,0,1,4.23-1.55l.4,0q-.33-.35-.66-.72a20.17,20.17,0,0,0-4.55-3.86,10.84,10.84,0,0,0-4.59,3.11,12.25,12.25,0,0,0-1.55,2.14,13.45,13.45,0,0,1,6.72.86Zm-.51,12.32-.24-.24a8.14,8.14,0,0,1-1.83-4.49,17.1,17.1,0,0,0-2.62-.39,8.63,8.63,0,0,0-3.25.41,13.94,13.94,0,0,0,1.71,5.91,13.28,13.28,0,0,1,6.23-1.2Zm-2.13-6.39a8.3,8.3,0,0,1,1.37-4.49A18.26,18.26,0,0,0,37.8,20a8.61,8.61,0,0,0-2.63-.23A14.34,14.34,0,0,0,33.86,26c0,.19,0,.37,0,.56a11.94,11.94,0,0,1,5.84-.91Zm20.56,2.25V25.39A9.73,9.73,0,0,1,53.6,27a9.24,9.24,0,0,1-.55,2.54c3.12.37,5.54-.26,7.23-1.65Zm0,3.36V28.63c-1.57,1.62-4.37,2.72-8,2.47a8.75,8.75,0,0,1-.58.78,6.48,6.48,0,0,1-2.2,1.61c5.36.83,8.92-.1,10.8-2.22Zm-13.1-15.8c4.87,5.12,8.77,7,13.1,6.11V13.7h-7v2.88A10.51,10.51,0,0,0,45.52,13c-.4,0-.8,0-1.19.05a18.41,18.41,0,0,1,2.85,2.4Zm5.59,6.6a8.79,8.79,0,0,1,.84,3.49,9.35,9.35,0,0,0,6.67-.71V22.13a10.65,10.65,0,0,1-7.51-.06Z"/></svg>