<svg width="566" height="323" viewBox="0 0 566 323" fill="none" xmlns="http://www.w3.org/2000/svg">
<g clip-path="url(#clip0)">
<path d="M508.954 251.449C508.954 251.263 508.954 251.263 508.954 251.078C508.954 250.148 508.768 249.219 508.582 248.476C508.582 248.29 508.582 248.104 508.582 247.918C508.397 247.175 508.397 246.431 508.211 245.688C508.211 245.502 508.211 245.502 508.211 245.316C508.025 244.573 507.839 243.83 507.653 243.086C507.653 242.9 507.653 242.9 507.468 242.715C507.282 241.971 507.096 241.414 506.724 240.67C506.353 239.741 505.981 238.998 505.609 238.068C505.424 237.697 505.238 237.511 505.238 237.139C504.866 236.396 504.494 235.838 504.123 235.095C503.751 234.537 503.565 234.166 503.194 233.794C503.008 233.422 502.822 233.236 502.636 232.865C502.079 232.121 501.336 231.378 500.778 230.635C495.947 225.617 489.257 222.271 480.338 222.271C463.057 222.271 450.979 236.396 450.979 253.494V253.679C450.979 272.264 464.358 284.902 481.825 284.902C492.416 284.902 500.221 280.813 505.795 274.308C505.981 273.751 505.981 273.193 505.424 272.822C503.751 271.335 500.778 268.733 499.292 267.432C498.734 266.874 497.991 267.06 497.433 267.432C492.974 271.521 488.328 273.751 482.011 273.751C477.551 273.751 473.649 272.264 470.49 269.662C469.747 269.105 469.189 268.361 468.446 267.618C468.26 267.432 468.26 267.432 468.074 267.246C467.517 266.689 467.145 265.945 466.773 265.202C466.588 265.016 466.588 264.644 466.402 264.459C466.03 263.715 465.844 263.158 465.473 262.414C465.287 262.042 465.287 261.671 465.101 261.299C464.915 260.927 464.915 260.556 464.73 260.184C464.73 259.998 464.73 259.998 464.73 259.812C464.73 259.069 465.287 258.511 466.03 258.511H507.468C508.025 258.511 508.397 257.954 508.582 257.396C508.582 257.211 508.582 257.025 508.582 256.839C508.582 256.281 508.582 255.724 508.582 255.352C508.582 255.166 508.582 254.795 508.582 254.609C509.14 253.494 509.14 252.564 508.954 251.449ZM465.101 246.617C465.101 246.246 465.287 245.874 465.473 245.502C465.659 244.759 466.03 244.015 466.216 243.458C466.402 243.272 466.402 242.9 466.588 242.715C466.959 241.971 467.331 241.228 467.703 240.67C467.703 240.484 467.888 240.299 467.888 240.299C468.446 239.555 469.003 238.812 469.561 238.068C472.348 235.281 475.879 233.608 479.967 233.608C484.612 233.608 488.143 235.467 490.744 238.254C490.744 238.254 490.744 238.44 490.93 238.44C491.487 238.998 492.045 239.741 492.416 240.484C492.602 240.67 492.602 240.856 492.788 241.042C493.16 241.785 493.531 242.343 493.903 243.086C494.089 243.272 494.089 243.644 494.274 243.83C494.46 244.573 494.646 245.131 494.832 245.874C494.832 246.246 495.018 246.617 495.018 246.989C495.018 247.361 495.204 247.732 495.204 248.104C495.204 248.29 495.204 248.29 495.204 248.29C495.204 249.033 494.646 249.591 493.903 249.591H466.216C465.473 249.591 464.915 249.033 464.915 248.29C464.915 248.104 464.915 248.104 464.915 247.918C464.915 247.361 464.915 246.989 465.101 246.617Z" fill="#575B5D"/>
<path d="M176.155 223.201H187.304C188.047 223.201 188.605 223.759 188.605 224.502V228.776C188.605 229.892 189.905 230.449 190.649 229.52C194.365 225.245 199.568 221.714 207.372 221.714C220.937 221.714 228.741 230.821 228.741 244.759V281.928C228.741 282.672 228.184 283.229 227.441 283.229H216.292C215.548 283.229 214.991 282.672 214.991 281.928V249.034C214.991 239.741 210.345 234.352 202.169 234.352C194.179 234.352 188.605 239.927 188.605 249.22V281.928C188.605 282.672 188.047 283.229 187.304 283.229H176.155C175.412 283.229 174.854 282.672 174.854 281.928V224.316C174.854 223.759 175.412 223.201 176.155 223.201Z" fill="#575B5D"/>
<path d="M246.951 200.156H258.101C258.844 200.156 259.401 200.714 259.401 201.457V228.405C259.401 229.705 260.888 230.263 261.817 229.334C265.533 225.059 270.736 221.9 278.355 221.9C291.919 221.9 299.724 231.006 299.724 244.945V282.114C299.724 282.857 299.166 283.415 298.423 283.415H287.274C286.531 283.415 285.973 282.857 285.973 282.114V249.219C285.973 239.927 281.328 234.537 273.152 234.537C265.162 234.537 259.587 240.113 259.587 249.405V282.114C259.587 282.857 259.03 283.415 258.286 283.415H247.137C246.394 283.415 245.837 282.857 245.837 282.114V201.457C245.651 200.714 246.208 200.156 246.951 200.156Z" fill="#575B5D"/>
<path d="M312.359 266.131V265.945C312.359 252.936 322.579 246.617 337.259 246.617C343.948 246.617 348.779 247.733 353.425 249.219V247.733C353.425 239.184 348.222 234.537 338.559 234.537C332.427 234.537 327.596 235.838 322.765 237.697C322.022 238.069 321.278 237.697 320.907 236.953L318.119 228.59C317.934 227.847 318.305 227.104 318.863 226.918C325.181 224.316 331.313 222.458 340.418 222.458C349.523 222.458 356.212 224.874 360.3 229.148C364.76 233.422 366.804 239.927 366.804 247.733V282.114C366.804 282.857 366.246 283.415 365.503 283.415H354.726C353.982 283.415 353.425 282.857 353.425 282.114V278.955C353.425 277.84 352.124 277.282 351.381 278.025C347.293 281.928 341.533 284.716 333.728 284.716C322.393 284.716 312.359 278.211 312.359 266.131ZM353.611 261.857V258.697C353.611 258.14 353.239 257.582 352.682 257.397C349.337 256.281 344.877 255.352 339.86 255.352C330.941 255.352 325.738 259.069 325.738 265.388V265.574C325.738 271.335 330.941 274.68 337.445 274.68C346.735 274.68 353.611 269.477 353.611 261.857Z" fill="#575B5D"/>
<path d="M384.642 223.201H395.791C396.534 223.201 397.092 223.759 397.092 224.502V228.776C397.092 229.892 398.393 230.449 399.136 229.52C402.852 225.245 408.055 221.714 415.859 221.714C429.424 221.714 437.228 230.821 437.228 244.759V281.928C437.228 282.672 436.671 283.229 435.928 283.229H424.779C424.035 283.229 423.478 282.672 423.478 281.928V249.034C423.478 239.741 418.833 234.352 410.657 234.352C402.666 234.352 397.092 239.927 397.092 249.22V281.928C397.092 282.672 396.534 283.229 395.791 283.229H384.642C383.899 283.229 383.341 282.672 383.341 281.928V224.316C383.341 223.759 383.899 223.201 384.642 223.201Z" fill="#575B5D"/>
<path d="M518.802 274.494L523.448 267.432C523.819 266.874 524.748 266.689 525.306 267.06C531.624 271.335 538.127 273.565 543.888 273.565C549.834 273.565 553.179 270.963 553.179 267.06V266.874C553.179 262.228 546.861 260.556 539.8 258.511C530.88 255.91 521.032 252.379 521.032 240.856V240.67C521.032 229.334 530.509 222.271 542.401 222.271C549.462 222.271 557.267 224.687 563.399 228.404C563.956 228.776 564.142 229.519 563.77 230.263L559.682 237.697C559.311 238.44 558.381 238.626 557.824 238.254C552.435 235.095 546.675 233.236 542.029 233.236C536.641 233.236 533.668 235.838 533.668 239.183V239.369C533.668 243.83 540.171 245.688 547.232 247.918C555.966 250.706 566 254.609 566 265.574V265.759C566 278.397 556.152 284.716 543.702 284.716C535.526 284.716 526.607 281.928 519.174 276.538C518.616 275.981 518.431 275.052 518.802 274.494Z" fill="#575B5D"/>
<path d="M180.8 305.903H175.783V303.301H188.605V305.903H183.588V319.284H180.8V305.903Z" fill="#575B5D"/>
<path d="M191.02 302.743H193.808V309.248C194.551 308.132 195.666 307.203 197.524 307.203C200.311 307.203 201.798 309.062 201.798 311.849V319.469H199.01V312.593C199.01 310.734 198.081 309.619 196.409 309.619C194.737 309.619 193.622 310.734 193.622 312.593V319.283H190.834V302.743H191.02Z" fill="#575B5D"/>
<path d="M204.399 313.336C204.399 309.805 206.815 307.017 210.16 307.017C214.062 307.017 215.92 309.991 215.92 313.522C215.92 313.708 215.92 314.079 215.92 314.265H207.186C207.558 316.124 208.859 317.239 210.717 317.239C212.018 317.239 212.947 316.681 213.876 315.752L215.548 317.239C214.433 318.54 212.761 319.469 210.717 319.469C207.186 319.469 204.399 317.053 204.399 313.336ZM213.318 312.407C213.133 310.548 212.018 309.247 210.345 309.247C208.673 309.247 207.558 310.548 207.186 312.407H213.318Z" fill="#575B5D"/>
<path d="M225.954 303.301H228.556L237.103 314.266V303.301H239.89V319.098H237.475L228.741 307.761V319.098H225.954V303.301Z" fill="#575B5D"/>
<path d="M250.853 319.283V317.797C250.11 318.726 248.809 319.469 246.951 319.469C244.721 319.469 242.677 318.168 242.677 315.752C242.677 313.15 244.721 311.85 247.508 311.85C248.995 311.85 249.924 312.035 250.853 312.407V312.221C250.853 310.549 249.738 309.619 247.88 309.619C246.579 309.619 245.464 309.991 244.535 310.363L243.792 308.133C245.093 307.575 246.394 307.203 248.438 307.203C251.968 307.203 253.64 309.062 253.64 312.221V319.283H250.853ZM250.853 314.266C250.11 314.08 249.181 313.708 248.066 313.708C246.394 313.708 245.279 314.451 245.279 315.566C245.279 316.682 246.208 317.425 247.508 317.425C249.367 317.425 250.667 316.496 250.667 314.823V314.266H250.853Z" fill="#575B5D"/>
<path d="M257.357 315.938V309.619H255.87V307.203H257.357V303.858H260.144V307.203H263.303V309.619H260.144V315.566C260.144 316.681 260.702 317.053 261.631 317.053C262.188 317.053 262.746 316.867 263.303 316.681V318.911C262.56 319.283 261.817 319.469 260.887 319.469C258.658 319.469 257.357 318.54 257.357 315.938Z" fill="#575B5D"/>
<path d="M266.091 302.743H269.064V305.345H266.091V302.743ZM266.276 307.203H269.064V319.097H266.276V307.203Z" fill="#575B5D"/>
<path d="M271.851 313.336C271.851 309.805 274.638 307.017 278.169 307.017C281.885 307.017 284.486 309.805 284.486 313.15C284.486 316.495 281.699 319.469 277.983 319.469C274.638 319.469 271.851 316.681 271.851 313.336ZM281.885 313.336C281.885 311.106 280.398 309.433 278.169 309.433C275.939 309.433 274.638 311.106 274.638 313.336C274.638 315.38 276.125 317.239 278.354 317.239C280.584 317.053 281.885 315.38 281.885 313.336Z" fill="#575B5D"/>
<path d="M287.459 307.203H290.247V309.061C290.99 307.946 292.105 307.017 293.963 307.017C296.75 307.017 298.237 308.876 298.237 311.663V319.283H295.45V312.407C295.45 310.548 294.521 309.433 292.848 309.433C291.176 309.433 290.061 310.548 290.061 312.407V319.097H287.274V307.203H287.459Z" fill="#575B5D"/>
<path d="M300.652 308.505C301.953 308.319 302.696 307.575 302.511 306.46H301.396V303.301H304.369V305.903C304.369 308.505 303.254 309.434 300.838 309.62L300.652 308.505Z" fill="#575B5D"/>
<path d="M306.227 317.61L307.528 315.752C308.828 316.681 310.315 317.239 311.43 317.239C312.545 317.239 313.288 316.681 313.288 315.938C313.288 315.009 311.987 314.637 310.687 314.265C308.828 313.708 306.97 312.964 306.97 310.734C306.97 308.504 308.828 307.017 311.244 307.017C312.731 307.017 314.403 307.575 315.704 308.318L314.589 310.176C313.474 309.433 312.173 309.061 311.244 309.061C310.129 309.061 309.572 309.619 309.572 310.176C309.572 311.106 310.872 311.477 312.359 311.849C314.031 312.407 316.075 313.15 316.075 315.38C316.075 317.982 314.217 319.097 311.616 319.097C309.572 319.469 307.714 318.911 306.227 317.61Z" fill="#575B5D"/>
<path d="M325.552 303.301H328.525L333.357 310.735L338.188 303.301H341.161V319.098H338.374V307.761L333.357 315.195L328.34 307.761V319.098H325.552V303.301Z" fill="#575B5D"/>
<path d="M344.32 313.336C344.32 309.805 347.107 307.017 350.637 307.017C354.354 307.017 356.955 309.805 356.955 313.15C356.955 316.495 354.168 319.469 350.452 319.469C347.107 319.469 344.32 316.681 344.32 313.336ZM354.354 313.336C354.354 311.106 352.867 309.433 350.637 309.433C348.408 309.433 347.107 311.106 347.107 313.336C347.107 315.38 348.593 317.239 350.823 317.239C353.053 317.053 354.354 315.38 354.354 313.336Z" fill="#575B5D"/>
<path d="M362.715 317.425V319.283H359.928V302.743H362.715V309.248C363.645 307.947 364.759 307.017 366.803 307.017C369.591 307.017 372.378 309.248 372.378 313.15C372.378 317.053 369.591 319.283 366.803 319.283C364.759 319.469 363.459 318.54 362.715 317.425ZM369.591 313.336C369.591 310.92 368.104 309.433 366.246 309.433C364.388 309.433 362.715 310.92 362.715 313.336C362.715 315.566 364.388 317.239 366.246 317.239C367.918 317.053 369.591 315.566 369.591 313.336Z" fill="#575B5D"/>
<path d="M375.165 302.743H378.138V305.345H375.165V302.743ZM375.351 307.203H378.138V319.097H375.351V307.203Z" fill="#575B5D"/>
<path d="M381.855 302.743H384.642V319.283H381.855V302.743Z" fill="#575B5D"/>
<path d="M387.429 313.336C387.429 309.805 389.845 307.017 393.19 307.017C397.092 307.017 398.95 309.991 398.95 313.522C398.95 313.708 398.95 314.079 398.95 314.265H390.216C390.588 316.124 391.889 317.239 393.747 317.239C395.048 317.239 395.977 316.681 396.906 315.752L398.578 317.239C397.463 318.54 395.791 319.469 393.747 319.469C390.031 319.469 387.429 317.053 387.429 313.336ZM396.349 312.407C396.163 310.548 395.048 309.247 393.375 309.247C391.703 309.247 390.588 310.548 390.216 312.407H396.349Z" fill="#575B5D"/>
<path d="M408.984 303.301H411.771V309.991H419.39V303.301H422.177V319.098H419.39V312.407H411.771V319.098H408.984V303.301Z" fill="#575B5D"/>
<path d="M425.15 313.336C425.15 309.805 427.566 307.017 431.097 307.017C434.999 307.017 436.857 309.991 436.857 313.522C436.857 313.708 436.857 314.079 436.857 314.265H428.123C428.495 316.124 429.796 317.239 431.654 317.239C432.955 317.239 433.884 316.681 434.813 315.752L436.485 317.239C435.37 318.54 433.698 319.469 431.654 319.469C427.938 319.469 425.15 317.053 425.15 313.336ZM434.07 312.407C433.884 310.548 432.769 309.247 431.097 309.247C429.424 309.247 428.309 310.548 427.938 312.407H434.07Z" fill="#575B5D"/>
<path d="M446.891 319.283V317.797C446.148 318.726 444.847 319.469 442.989 319.469C440.759 319.469 438.715 318.168 438.715 315.752C438.715 313.15 440.759 311.85 443.546 311.85C445.033 311.85 445.962 312.035 446.891 312.407V312.221C446.891 310.549 445.776 309.619 443.918 309.619C442.617 309.619 441.502 309.991 440.573 310.363L439.83 308.133C441.13 307.575 442.431 307.203 444.475 307.203C448.006 307.203 449.678 309.062 449.678 312.221V319.283H446.891ZM446.891 314.266C446.148 314.08 445.218 313.708 444.104 313.708C442.431 313.708 441.316 314.451 441.316 315.566C441.316 316.682 442.245 317.425 443.546 317.425C445.404 317.425 446.705 316.496 446.705 314.823V314.266H446.891Z" fill="#575B5D"/>
<path d="M453.023 302.743H455.81V319.283H453.023V302.743Z" fill="#575B5D"/>
<path d="M459.898 315.938V309.619H458.411V307.203H459.898V303.858H462.685V307.203H465.844V309.619H462.685V315.566C462.685 316.681 463.243 317.053 464.172 317.053C464.729 317.053 465.287 316.867 465.844 316.681V318.911C465.101 319.283 464.357 319.469 463.428 319.469C461.384 319.469 459.898 318.54 459.898 315.938Z" fill="#575B5D"/>
<path d="M468.631 302.743H471.419V309.248C472.162 308.132 473.277 307.203 475.135 307.203C477.922 307.203 479.409 309.062 479.409 311.849V319.469H476.621V312.593C476.621 310.734 475.692 309.619 474.02 309.619C472.348 309.619 471.233 310.734 471.233 312.593V319.283H468.446V302.743H468.631Z" fill="#575B5D"/>
<path d="M488.7 316.867L490.372 314.823C491.859 316.124 493.345 316.867 495.389 316.867C497.062 316.867 498.177 316.124 498.177 314.823C498.177 313.708 497.619 313.15 494.646 312.407C491.301 311.664 489.443 310.549 489.443 307.575C489.443 304.787 491.673 302.929 494.832 302.929C497.062 302.929 498.92 303.672 500.592 304.973L499.106 307.018C497.619 305.902 496.318 305.345 494.832 305.345C493.159 305.345 492.23 306.274 492.23 307.203C492.23 308.504 492.974 309.062 495.947 309.619C499.291 310.363 500.964 311.664 500.964 314.266C500.964 317.239 498.548 319.098 495.203 319.098C492.974 319.469 490.744 318.54 488.7 316.867Z" fill="#575B5D"/>
<path d="M503.937 314.823V307.203H506.724V314.08C506.724 315.938 507.653 317.053 509.326 317.053C510.998 317.053 512.113 315.938 512.113 314.08V307.389H514.9V319.283H512.113V317.425C511.37 318.54 510.255 319.469 508.396 319.469C505.423 319.469 503.937 317.611 503.937 314.823Z" fill="#575B5D"/>
<path d="M518.059 307.203H520.846V309.991C521.589 308.132 522.89 307.017 525.12 307.017V309.991H524.934C522.518 309.991 520.846 311.477 520.846 314.823V319.469H518.059V307.203Z" fill="#575B5D"/>
<path d="M526.421 307.203H529.394L532.553 315.938L535.712 307.203H538.685L533.854 319.283H531.438L526.421 307.203Z" fill="#575B5D"/>
<path d="M539.614 313.336C539.614 309.805 542.029 307.017 545.374 307.017C549.276 307.017 551.135 309.991 551.135 313.522C551.135 313.708 551.135 314.079 551.135 314.265H542.401C542.773 316.124 544.073 317.239 545.932 317.239C547.232 317.239 548.161 316.681 549.091 315.752L550.763 317.239C549.648 318.54 547.976 319.469 545.932 319.469C542.401 319.469 539.614 317.053 539.614 313.336ZM548.533 312.407C548.347 310.548 547.232 309.247 545.56 309.247C543.888 309.247 542.773 310.548 542.401 312.407H548.533Z" fill="#575B5D"/>
<path d="M552.993 322.257L553.922 320.212C554.479 320.398 555.037 320.584 555.594 320.584C556.337 320.584 556.895 320.212 557.267 319.283L552.25 307.389H555.223L558.567 316.309L561.726 307.389H564.513L559.682 319.655C558.753 322.071 557.638 323 555.78 323C554.665 323 553.922 322.628 552.993 322.257Z" fill="#575B5D"/>
<path d="M107.588 63.7446C106.473 70.4351 106.659 76.9397 107.217 82.1434C106.659 76.568 106.659 70.0634 107.588 63.7446Z" fill="#027B88"/>
<path d="M107.775 86.2322C107.775 85.8605 107.588 85.6747 107.588 85.303C107.588 85.6747 107.588 85.8605 107.775 86.2322Z" fill="#027B88"/>
<path d="M141.593 24.1597C136.576 26.3899 128.586 30.6643 121.71 37.3548C120.596 38.4699 120.224 40.1425 120.781 41.8151C126.542 59.8421 122.64 78.6126 120.224 87.719C120.038 88.2765 119.852 88.8341 119.852 89.2058C120.038 89.2058 120.038 89.0199 120.224 89.0199C128.028 84.7455 138.062 77.3116 143.823 66.1609C151.255 51.8508 149.397 35.3105 147.725 27.3191C146.982 24.5314 144.009 23.0447 141.593 24.1597Z" fill="#027B88"/>
<path d="M106.287 36.6116C115.021 56.3112 112.234 78.6127 110.561 88.4625C110.004 91.2502 107.031 92.737 104.615 91.6219C94.9525 87.1616 73.2118 75.2675 64.4784 55.1961C55.745 35.1248 60.3904 12.8233 63.1777 3.15932C63.921 0.557477 66.894 -0.743444 69.3097 0.557477C77.8573 5.01778 97.5539 16.7261 106.287 36.6116Z" fill="#027B88"/>
<path d="M205.142 128.977L204.956 128.605C204.771 128.419 204.771 128.233 204.585 128.048L204.399 127.862C185.631 102.215 163.148 96.8254 147.539 96.8254C132.116 96.8254 118.923 101.843 109.632 106.861C100.341 101.843 86.9624 96.8254 71.7253 96.8254C56.1167 96.8254 33.6328 102.215 14.8652 127.862L14.6794 128.233C14.4936 128.419 14.4936 128.605 14.3078 128.791L14.1219 129.163C3.71616 146.075 -1.11509 165.217 0.18563 186.217C1.30054 204.43 6.87506 223.015 16.5376 240.113C27.315 259.255 42.3662 275.423 59.0898 285.459C60.2047 286.202 61.5054 286.574 62.8061 286.574C64.2926 286.574 67.2657 285.273 68.3806 284.53C68.5665 284.53 71.3537 277.653 66.5225 273.193C52.0287 264.458 38.6498 250.148 29.1732 233.05C20.6256 217.811 15.6085 201.271 14.6794 185.288C13.5645 167.447 17.6525 150.907 26.5717 136.411C41.6229 115.596 59.4614 111.321 71.7253 111.321C86.0333 111.321 98.2972 116.897 105.916 121.357C108.146 122.658 110.933 122.658 113.163 121.357C120.967 116.711 133.231 111.321 147.353 111.321C159.617 111.321 177.27 115.596 192.693 136.411C201.612 150.907 205.514 167.447 204.585 185.288C204.399 187.146 204.399 189.005 204.027 190.863C203.656 194.766 206.443 198.297 210.345 198.855C214.247 199.226 217.778 196.439 218.335 192.536C218.521 190.492 218.707 188.262 218.893 186.217C220.194 165.217 215.548 146.075 205.142 128.977Z" fill="#F05259"/>
<path d="M122.268 311.291C120.409 311.291 118.923 309.99 118.737 308.132L112.233 260.555L109.632 289.919C109.446 291.592 108.145 292.893 106.473 293.078C104.801 293.264 103.128 292.335 102.571 290.662L100.341 284.53H93.28C91.7935 284.53 90.307 283.6 89.9353 282.114C87.8913 275.795 86.0332 274.122 85.2899 273.936C83.6175 273.936 80.2728 278.025 78.043 282.485C77.4856 283.786 76.1848 284.53 74.8841 284.53H65.7791C63.7351 284.53 62.2485 282.857 62.2485 280.998C62.2485 278.954 63.9209 277.467 65.7791 277.467H72.8401C74.8841 273.565 79.7154 266.502 85.8473 266.874C91.6077 267.246 94.5808 273.379 96.0673 277.467H103.128C103.314 277.467 103.5 277.467 103.686 277.467L107.96 228.218C108.145 226.36 109.632 225.059 111.49 224.873C113.348 224.873 114.835 226.174 115.021 228.032L121.896 277.467C122.082 277.467 122.268 277.467 122.268 277.467H130.444C132.488 272.264 136.576 264.458 142.336 264.83C147.539 265.016 150.326 271.334 151.813 277.467H159.059C161.103 277.467 162.59 279.14 162.59 280.998C162.59 282.857 160.918 284.53 159.059 284.53H149.025C147.353 284.53 145.866 283.414 145.495 281.742C143.822 274.68 142.336 272.45 141.778 271.892C140.292 272.821 137.69 277.653 136.204 282.114C135.646 283.6 134.346 284.53 132.859 284.53H125.798V307.574C125.798 309.433 124.312 310.92 122.453 311.105C122.268 311.291 122.268 311.291 122.268 311.291Z" fill="#F05259"/>
</g>
<defs>
<clipPath id="clip0">
<rect width="566" height="323" fill="white"/>
</clipPath>
</defs>
</svg>
