<svg id="Layer_1" data-name="Layer 1" xmlns="http://www.w3.org/2000/svg" viewBox="0 0 204 166"><defs><style>.cls-1{fill:#faa15c;fill-rule:evenodd;}.cls-2{fill:#25303c;}</style></defs><path class="cls-1" d="M32.68.23H171.32a32.42,32.42,0,0,1,32.32,32.32v67.6a32.42,32.42,0,0,1-32.32,32.32h-87l-50.84,33.3v-33.3h-.83A32.42,32.42,0,0,1,.36,100.15V32.55A32.42,32.42,0,0,1,32.68.23Z"/><path class="cls-2" d="M66.37,112.82v-12a.31.31,0,0,1,0-.19.25.25,0,0,1,.19-.06h2.21a.43.43,0,0,1,.22,0,.28.28,0,0,1,.1.16l3.37,8.86q0,.15.12.15s.08-.06.13-.17l3.33-8.77c.06-.18.17-.27.3-.27h2.29c.15,0,.22.08.22.25v12a.24.24,0,0,1-.3.3H77.15a.32.32,0,0,1-.22-.06.25.25,0,0,1-.07-.21v-9.24s0-.08,0-.08a.17.17,0,0,0-.07.1l-3.47,9.26a.33.33,0,0,1-.32.23H72a.36.36,0,0,1-.35-.22l-3.41-9.17c0-.08,0-.12-.07-.11s0,0,0,.11v9.16a.22.22,0,0,1-.06.18s-.1,0-.2,0H66.64C66.46,113.1,66.37,113,66.37,112.82Zm17.42.45a3,3,0,0,1-2-.66,2.25,2.25,0,0,1-.76-1.78,2.52,2.52,0,0,1,1.19-2.18,6.57,6.57,0,0,1,3.38-.91l1.1-.08c.18,0,.27-.11.27-.26V107a1.75,1.75,0,0,0-.5-1.31,1.94,1.94,0,0,0-1.39-.48,2.54,2.54,0,0,0-2.21,1.25.25.25,0,0,1-.11.13.34.34,0,0,1-.17,0l-1.15-.34a.13.13,0,0,1-.1-.13.41.41,0,0,1,0-.19,3.22,3.22,0,0,1,1.44-1.41,5.12,5.12,0,0,1,2.34-.49,4,4,0,0,1,2.64.75,2.63,2.63,0,0,1,.88,2.11v6a.3.3,0,0,1-.06.22.25.25,0,0,1-.19.06H87.27q-.24,0-.27-.33l0-.65c0-.08,0-.13-.1-.13a.4.4,0,0,0-.18.1A4,4,0,0,1,83.79,113.27Zm2.9-4.62-.91.07a4.86,4.86,0,0,0-2.21.56,1.47,1.47,0,0,0-.82,1.33,1.25,1.25,0,0,0,.47,1,1.94,1.94,0,0,0,1.27.38,2.76,2.76,0,0,0,1.72-.62,1.61,1.61,0,0,0,.72-1.18V108.9C86.93,108.72,86.85,108.64,86.69,108.65Zm7-3.2c-.1,0-.15,0-.15.17v4.94a1.39,1.39,0,0,0,.26,1,1.15,1.15,0,0,0,.83.26H95.7c.14,0,.2.07.2.21v.72a.27.27,0,0,1-.25.29,12,12,0,0,1-1.72.08,2.33,2.33,0,0,1-1.65-.51,2.11,2.11,0,0,1-.54-1.59v-5.35c0-.14-.06-.2-.17-.2H90.3a.19.19,0,0,1-.22-.21v-.89c0-.12.07-.19.21-.19h1.35c.09,0,.13,0,.13-.15l.2-2.65c0-.15.09-.23.21-.23h1.16c.15,0,.22.09.22.27V104a.13.13,0,0,0,.15.15h2c.14,0,.21.07.21.19v.89q0,.21-.24.21Zm5.45,5.18a2.66,2.66,0,0,0,1,1,2.7,2.7,0,0,0,1.37.36,2.87,2.87,0,0,0,1.38-.32,3.4,3.4,0,0,0,1.11-1,.14.14,0,0,1,.12-.07.29.29,0,0,1,.14,0l.86.41a.16.16,0,0,1,.08.13.34.34,0,0,1-.05.14,4.35,4.35,0,0,1-1.62,1.51,4.81,4.81,0,0,1-2.21.46A4.46,4.46,0,0,1,99,112.7a4,4,0,0,1-1.55-1.61,4.92,4.92,0,0,1-.56-2.35,5.16,5.16,0,0,1,.58-2.5,4.1,4.1,0,0,1,1.56-1.66,4.21,4.21,0,0,1,2.2-.58,4.34,4.34,0,0,1,2.19.54,3.66,3.66,0,0,1,1.46,1.6,5.57,5.57,0,0,1,.51,2.48v.06a.45.45,0,0,1,0,.23.23.23,0,0,1-.21.08H98.94c-.11,0-.17.09-.17.27A2.67,2.67,0,0,0,99.13,110.63Zm4.25-2.7a.37.37,0,0,0,.22-.05.25.25,0,0,0,.06-.19,2.71,2.71,0,0,0-.28-1.23,2.18,2.18,0,0,0-.81-.92,2.23,2.23,0,0,0-1.25-.35,2.42,2.42,0,0,0-1.34.38,2.65,2.65,0,0,0-.88,1,2.78,2.78,0,0,0-.3,1.34Zm3.84,4.9v-8.41c0-.17.07-.26.22-.26h1.3c.13,0,.2.08.2.22v1.07c0,.06,0,.1.06.11s.08,0,.13-.06a4.89,4.89,0,0,1,1.29-1.12,2.55,2.55,0,0,1,1.3-.38c.4,0,.59.07.59.23v1.32c0,.13-.06.19-.18.17a3.46,3.46,0,0,0-.9-.09,2.28,2.28,0,0,0-1,.26,2.73,2.73,0,0,0-.88.69,1.34,1.34,0,0,0-.35.86v5.38c0,.19-.11.28-.32.28h-1.2A.24.24,0,0,1,107.22,112.83Zm8.52-10.45a.41.41,0,0,1-.08.27.37.37,0,0,1-.26.08h-1.25a.29.29,0,0,1-.23-.07.37.37,0,0,1-.07-.25v-1.53c0-.2.08-.29.25-.29h1.4a.2.2,0,0,1,.17.08.29.29,0,0,1,.07.19Zm0,10.4a.35.35,0,0,1-.08.26.43.43,0,0,1-.26.06H114.2A.33.33,0,0,1,114,113a.25.25,0,0,1-.07-.21v-8.41a.34.34,0,0,1,0-.2.22.22,0,0,1,.18-.06h1.35q.21,0,.21.24Zm4.6.49a3,3,0,0,1-2.05-.66,2.27,2.27,0,0,1-.75-1.78,2.52,2.52,0,0,1,1.19-2.18,6.54,6.54,0,0,1,3.38-.91l1.1-.08c.18,0,.27-.11.27-.26V107a1.72,1.72,0,0,0-.51-1.31,1.93,1.93,0,0,0-1.38-.48,2.54,2.54,0,0,0-2.21,1.25.25.25,0,0,1-.11.13.38.38,0,0,1-.18,0l-1.14-.34a.14.14,0,0,1-.11-.13.45.45,0,0,1,.06-.19,3.22,3.22,0,0,1,1.44-1.41,5,5,0,0,1,2.33-.49,4,4,0,0,1,2.65.75,2.63,2.63,0,0,1,.88,2.11v6a.3.3,0,0,1-.06.22.25.25,0,0,1-.19.06h-1.13q-.24,0-.27-.33l0-.65c0-.08,0-.13-.1-.13a.42.42,0,0,0-.19.1A4,4,0,0,1,120.29,113.27Zm2.9-4.62-.91.07a5,5,0,0,0-2.22.56,1.48,1.48,0,0,0-.81,1.33,1.22,1.22,0,0,0,.47,1A1.9,1.9,0,0,0,121,112a2.74,2.74,0,0,0,1.72-.62,1.59,1.59,0,0,0,.73-1.18V108.9C123.43,108.72,123.35,108.64,123.19,108.65Zm6,4.13a.35.35,0,0,1-.08.26.46.46,0,0,1-.28.06h-1.14a.38.38,0,0,1-.24-.06.29.29,0,0,1-.07-.21l0-12c0-.17.07-.25.22-.25H129c.15,0,.22.08.22.25Zm6.86-7.31a2.93,2.93,0,0,0-1.33-.29,2.52,2.52,0,0,0-1.38.34,1.06,1.06,0,0,0-.54.94.85.85,0,0,0,.27.61,2.34,2.34,0,0,0,1,.47l2.07.59a3.43,3.43,0,0,1,1.75.93,2.31,2.31,0,0,1,.08,2.92,3.05,3.05,0,0,1-1.34,1,5.16,5.16,0,0,1-1.94.34,5.31,5.31,0,0,1-2.38-.51,3.28,3.28,0,0,1-1.47-1.34.37.37,0,0,1-.05-.16.18.18,0,0,1,.09-.15l.82-.44a.51.51,0,0,1,.17,0,.19.19,0,0,1,.14.07,3,3,0,0,0,2.65,1.35,3.07,3.07,0,0,0,1.53-.34,1.06,1.06,0,0,0,.61-.94.93.93,0,0,0-.35-.72,3.07,3.07,0,0,0-1.14-.5l-1.72-.43a3.74,3.74,0,0,1-1.82-.9,2,2,0,0,1-.57-1.48,2.36,2.36,0,0,1,.45-1.43,2.88,2.88,0,0,1,1.24-1,5.23,5.23,0,0,1,3.93.09,3.32,3.32,0,0,1,1.36,1.15.32.32,0,0,1,.07.17s0,.08-.09.12l-.87.45-.1,0a.29.29,0,0,1-.19-.08A2.65,2.65,0,0,0,136,105.47Z"/><path class="cls-2" d="M128.57,27V71.33a2.22,2.22,0,0,1-4.43,0V33.69H86.5a2.21,2.21,0,0,1-2.21-2.22V27a2.21,2.21,0,0,1,2.21-2.21h39.86A2.21,2.21,0,0,1,128.57,27Zm-8.86,13.29V84.62a2.21,2.21,0,0,1-2.21,2.21H77.64a2.21,2.21,0,0,1-2.21-2.21V40.33a2.21,2.21,0,0,1,2.21-2.21H117.5A2.21,2.21,0,0,1,119.71,40.33Zm-9.24,33a1.75,1.75,0,0,0-1.75-1.75H86.42a1.75,1.75,0,0,0,0,3.5h22.3A1.75,1.75,0,0,0,110.47,73.33Zm0-10.82a1.75,1.75,0,0,0-1.75-1.75H86.42a1.75,1.75,0,1,0,0,3.5h22.3A1.75,1.75,0,0,0,110.47,62.51Zm0-10.83a1.75,1.75,0,0,0-1.75-1.75H86.42a1.75,1.75,0,0,0,0,3.5h22.3A1.75,1.75,0,0,0,110.47,51.68Z"/></svg>