<svg id="Layer_1" data-name="Layer 1" xmlns="http://www.w3.org/2000/svg" viewBox="0 0 1541 821"><defs><style>.cls-1{fill:#a2d5c6;}.cls-2,.cls-9{fill:#cef1e7;}.cls-3{fill:#99b5bf;}.cls-10,.cls-3,.cls-5,.cls-6,.cls-7,.cls-8,.cls-9{fill-rule:evenodd;}.cls-4,.cls-5{fill:none;stroke:#fff;stroke-linecap:round;stroke-linejoin:round;stroke-width:2.03px;opacity:0.25;}.cls-6{fill:#f9c46f;}.cls-7{fill:#fff;opacity:0.15;}.cls-8{fill:#faa15c;opacity:0.8;}.cls-10{fill:#fbd69a;}</style></defs><path class="cls-1" d="M1540.5.39H.5V631.08a50,50,0,0,0,50,50h60V820.61l171-139.53h1209a50,50,0,0,0,50-50Z"/><circle class="cls-2" cx="1059.75" cy="474.29" r="91.34" transform="translate(-95.08 354.39) rotate(-18.18)"/><path class="cls-3" d="M1174.81,359.84h81.62a48.91,48.91,0,0,1,48.77,48.77V422.1l135.5,130.22L1303,504.77A49,49,0,0,1,1256.43,539h-81.62A48.91,48.91,0,0,1,1126,490.24V408.61A48.91,48.91,0,0,1,1174.81,359.84Z"/><path class="cls-3" d="M1166.15,670.34a18.58,18.58,0,1,0-18.58-18.57A18.6,18.6,0,0,0,1166.15,670.34Z"/><path class="cls-3" d="M1128.44,631.57a36.06,36.06,0,1,0-36-36.06A36.12,36.12,0,0,0,1128.44,631.57Z"/><circle class="cls-4" cx="1052.53" cy="492.06" r="91.34" transform="translate(-88.41 272.51) rotate(-14.16)"/><path class="cls-5" d="M1176.82,379.66h81.63a48.92,48.92,0,0,1,48.77,48.77v13.49l135.49,130.22L1305,524.59a49,49,0,0,1-46.54,34.24h-81.63a48.92,48.92,0,0,1-48.77-48.77V428.43A48.92,48.92,0,0,1,1176.82,379.66Z"/><path class="cls-5" d="M1119.17,639.48a36,36,0,1,0-36.05-36.05A36.11,36.11,0,0,0,1119.17,639.48Z"/><path class="cls-5" d="M1156.88,676.36a18.57,18.57,0,1,0-18.57-18.57A18.6,18.6,0,0,0,1156.88,676.36Z"/><path class="cls-6" d="M1230.89,102.16a81.93,81.93,0,0,1,72.61,43.94A62.28,62.28,0,1,1,1327,266H1141.31a62.28,62.28,0,1,1,18-121.89A81.92,81.92,0,0,1,1230.89,102.16Z"/><path class="cls-7" d="M1379.47,67.2a18.57,18.57,0,1,0-18.57-18.57A18.6,18.6,0,0,0,1379.47,67.2Z"/><path class="cls-8" d="M1316.11,119.64a36.05,36.05,0,1,0-36.06-36A36.12,36.12,0,0,0,1316.11,119.64Z"/><path class="cls-5" d="M1245.21,118.91a81.9,81.9,0,0,1,72.6,43.94,62.27,62.27,0,1,1,23.54,119.93H1155.62a62.27,62.27,0,1,1,18-121.88A81.91,81.91,0,0,1,1245.21,118.91Z"/><path class="cls-5" d="M1322.22,129.21a36.05,36.05,0,1,0-36-36.05A36.11,36.11,0,0,0,1322.22,129.21Z"/><path class="cls-5" d="M1385.59,72.67A18.57,18.57,0,1,0,1367,54.1,18.6,18.6,0,0,0,1385.59,72.67Z"/><path class="cls-9" d="M399.46,281.13c-72.41,0-131.1-35.21-131.1-78.66,0-19.57,11.92-37.47,31.64-51.24C294.16,135.48,267.31,77.1,186.15,63c45.41-15.44,170.72,12.1,196.27,61.45,5.58-.43,11.26-.66,17-.66,72.4,0,131.1,35.22,131.1,78.66S471.86,281.13,399.46,281.13Z"/><path class="cls-5" d="M385.15,274.54c-72.4,0-131.1-35.22-131.1-78.66,0-19.58,11.92-37.48,31.64-51.25-5.84-15.75-32.68-74.12-113.85-88.2C217.25,41,342.57,68.52,368.11,117.88c5.58-.44,11.27-.66,17-.66,72.41,0,131.1,35.21,131.1,78.66S457.56,274.54,385.15,274.54Z"/><path class="cls-10" d="M241.62,467.43A81.93,81.93,0,0,0,169,511.37a62.28,62.28,0,1,0-23.53,119.94H331.2a62.28,62.28,0,1,0-18-121.89A81.9,81.9,0,0,0,241.62,467.43Z"/><path class="cls-5" d="M227.3,484.18a81.94,81.94,0,0,0-72.61,43.93,62.28,62.28,0,1,0-23.53,119.94H316.88a62.27,62.27,0,1,0-18-121.88A81.9,81.9,0,0,0,227.3,484.18Z"/><path class="cls-8" d="M238.61,354.53H407a39.37,39.37,0,0,1,39.25,39.26v98.47A39.37,39.37,0,0,1,407,531.52H301.36l-66.75,70.93,5-70.93h-1a39.37,39.37,0,0,1-39.26-39.26V393.79A39.37,39.37,0,0,1,238.61,354.53Z"/><path class="cls-5" d="M231.39,335.39H399.78A39.38,39.38,0,0,1,439,374.65v98.47a39.38,39.38,0,0,1-39.26,39.26H294.15l-66.76,70.93,5-70.93h-1a39.37,39.37,0,0,1-39.25-39.26V374.65A39.37,39.37,0,0,1,231.39,335.39Z"/><path class="cls-10" d="M93,432.47a18.57,18.57,0,1,1,18.57-18.57A18.61,18.61,0,0,1,93,432.47Z"/><path class="cls-10" d="M156.4,484.91a36.05,36.05,0,1,1,36-36.05A36.11,36.11,0,0,1,156.4,484.91Z"/><path class="cls-5" d="M150.28,494.48a36.05,36.05,0,1,1,36.06-36.05A36.12,36.12,0,0,1,150.28,494.48Z"/><path class="cls-5" d="M86.92,437.94a18.57,18.57,0,1,1,18.57-18.57A18.6,18.6,0,0,1,86.92,437.94Z"/></svg>