<svg id="Layer_1" data-name="Layer 1" xmlns="http://www.w3.org/2000/svg" viewBox="0 0 654.75 393.14"><defs><style>.cls-1{fill:#f5ecd8;opacity:0.85;}.cls-1,.cls-2{fill-rule:evenodd;}.cls-2{fill:none;stroke:#5b412a;stroke-linecap:round;stroke-linejoin:round;stroke-width:2.89px;}</style></defs><path class="cls-1" d="M68.43,21.39H596.56A55.91,55.91,0,0,1,652.3,77.14V234.19a55.91,55.91,0,0,1-55.74,55.75h-439L69.86,390.65V289.94H68.43a55.91,55.91,0,0,1-55.74-55.75v-157A55.91,55.91,0,0,1,68.43,21.39Z"/><path id="outline" class="cls-2" d="M58.19,3.71H586.32a55.9,55.9,0,0,1,55.74,55.74V216.5a55.91,55.91,0,0,1-55.74,55.75h-439L59.62,373V272.25H58.19A55.92,55.92,0,0,1,2.44,216.5v-157A55.91,55.91,0,0,1,58.19,3.71Z"/></svg>