<svg id="Layer_1" data-name="Layer 1" xmlns="http://www.w3.org/2000/svg" viewBox="0 0 584.08 432.13"><defs><style>.cls-1{fill:#f5ecd8;opacity:0.85;}.cls-1,.cls-2{fill-rule:evenodd;}.cls-2{fill:none;stroke:#5b412a;stroke-linecap:round;stroke-linejoin:round;stroke-width:2.89px;}</style></defs><path class="cls-1" d="M70.24,21H525.58a55.92,55.92,0,0,1,55.75,55.75V273.41a55.91,55.91,0,0,1-55.75,55.74H159.36L64.57,429.87l7.11-100.72H70.24A55.91,55.91,0,0,1,14.5,273.41V76.73A55.92,55.92,0,0,1,70.24,21Z"/><path id="outline" class="cls-2" d="M60,3.29H515.34A55.91,55.91,0,0,1,571.08,59V255.72a55.91,55.91,0,0,1-55.74,55.75H149.12L54.32,412.18l7.11-100.71H60A55.91,55.91,0,0,1,4.26,255.72V59A55.91,55.91,0,0,1,60,3.29Z"/></svg>