<svg id="Layer_1" data-name="Layer 1" xmlns="http://www.w3.org/2000/svg" viewBox="0 0 256.13 209.13"><defs><style>.cls-1{fill:#25303c;fill-rule:evenodd;}.cls-2{fill:none;stroke:#faa15c;stroke-miterlimit:10;stroke-width:2px;}.cls-3{fill:#f2e6cb;}</style></defs><path class="cls-1" d="M49.73,9.64H216.1a38.89,38.89,0,0,1,38.78,38.78v81.12a38.89,38.89,0,0,1-38.78,38.78H111.73l-60.68,40-.32-40h-1A38.89,38.89,0,0,1,11,129.54V48.42A38.89,38.89,0,0,1,49.73,9.64Z"/><path class="cls-2" d="M40,1.7H206.4a38.89,38.89,0,0,1,38.78,38.78v81.11a38.89,38.89,0,0,1-38.78,38.79H102l-61,40v-40H40A38.9,38.9,0,0,1,1.24,121.59V40.48A38.9,38.9,0,0,1,40,1.7Z"/><path class="cls-3" d="M86.41,144.39a5.82,5.82,0,0,1-2.27-2.63,9.74,9.74,0,0,1-.79-4.12,10,10,0,0,1,.8-4.18,5.91,5.91,0,0,1,2.29-2.67,6.48,6.48,0,0,1,3.51-.93,6.36,6.36,0,0,1,3.47.93,6,6,0,0,1,2.27,2.66,11.2,11.2,0,0,1,0,8.29,6,6,0,0,1-2.27,2.64,7.26,7.26,0,0,1-7,0ZM93,142.07a7.85,7.85,0,0,0,1-4.43,8.22,8.22,0,0,0-1-4.53,3.39,3.39,0,0,0-3-1.47,3.48,3.48,0,0,0-3,1.47,8.12,8.12,0,0,0-1,4.53,7.77,7.77,0,0,0,1,4.42,3.48,3.48,0,0,0,3,1.42A3.4,3.4,0,0,0,93,142.07Zm6.51,3a.3.3,0,0,1-.36-.36V130.37c0-.2.09-.3.28-.3H101q.24,0,.24.3v4.9c0,.15,0,.22.1.22a.43.43,0,0,0,.23-.1,4.33,4.33,0,0,1,3.09-1.24,3.73,3.73,0,0,1,3.21,1.52,6.66,6.66,0,0,1,1.1,4,6.4,6.4,0,0,1-1.21,4.12,4.13,4.13,0,0,1-3.4,1.51,3.87,3.87,0,0,1-2-.49,4.26,4.26,0,0,1-1.28-1.11c-.07-.07-.11-.1-.14-.1s-.06,0-.08.16l-.17,1a.42.42,0,0,1-.12.26c0,.06-.14.08-.28.08Zm1.78-3.64a2.18,2.18,0,0,0,.38,1.23,2.58,2.58,0,0,0,1,.87,2.83,2.83,0,0,0,1.27.31,2.52,2.52,0,0,0,2.11-1,5.16,5.16,0,0,0,.79-3.12,5.34,5.34,0,0,0-.72-3,2.38,2.38,0,0,0-2.08-1,3.1,3.1,0,0,0-1.5.38,4.16,4.16,0,0,0-1.23,1Zm11.49,6.35a3.23,3.23,0,0,1-2.38.73c-.34,0-.61,0-.83,0a.84.84,0,0,1-.42-.09.23.23,0,0,1-.09-.21l0-1.09a.29.29,0,0,1,.25-.31l1-.06a1.13,1.13,0,0,0,.84-.34,1.7,1.7,0,0,0,.25-1.07V134.66c0-.2.09-.3.28-.3h1.62c.16,0,.25.09.25.28v10.81A3.28,3.28,0,0,1,112.73,147.79Zm.78-15.58a.5.5,0,0,1-.09.33.51.51,0,0,1-.34.1h-1.5c-.23,0-.34-.13-.34-.39v-1.84c0-.23.1-.34.3-.34h1.66a.27.27,0,0,1,.22.09.32.32,0,0,1,.09.23Zm4.84,9.91a3.26,3.26,0,0,0,1.19,1.17,3.2,3.2,0,0,0,1.64.44,3.48,3.48,0,0,0,1.66-.39,4,4,0,0,0,1.33-1.19.19.19,0,0,1,.14-.08.31.31,0,0,1,.17,0l1,.48a.2.2,0,0,1,.1.17.35.35,0,0,1-.06.16,5.33,5.33,0,0,1-1.94,1.81,5.84,5.84,0,0,1-2.66.56,5.33,5.33,0,0,1-2.71-.69,4.93,4.93,0,0,1-1.86-1.93,5.86,5.86,0,0,1-.67-2.83,6.25,6.25,0,0,1,.69-3,5,5,0,0,1,1.87-2,5.45,5.45,0,0,1,5.27,0,4.39,4.39,0,0,1,1.75,1.91,6.58,6.58,0,0,1,.62,3v.08a.5.5,0,0,1,0,.27c0,.07-.12.09-.25.09h-7.49c-.13,0-.2.11-.2.33A3.17,3.17,0,0,0,118.35,142.12Zm5.09-3.25a.46.46,0,0,0,.28-.06.3.3,0,0,0,.07-.22,3.25,3.25,0,0,0-.34-1.48,2.58,2.58,0,0,0-1-1.1,2.67,2.67,0,0,0-1.51-.42,2.81,2.81,0,0,0-1.6.46,3.12,3.12,0,0,0-1.06,1.19,3.36,3.36,0,0,0-.35,1.61Zm11.88-4a4.63,4.63,0,0,1,1.64,1.95.34.34,0,0,1,0,.18c0,.08-.06.13-.18.16l-1.44.24h-.06c-.08,0-.15-.05-.2-.16a5.19,5.19,0,0,0-1.09-1.22,2,2,0,0,0-1.28-.4,2.69,2.69,0,0,0-2.24,1.07,5.81,5.81,0,0,0,0,6,2.78,2.78,0,0,0,2.3,1.07,2.65,2.65,0,0,0,1.57-.47,4.61,4.61,0,0,0,1.23-1.39.21.21,0,0,1,.12-.1.19.19,0,0,1,.16,0l1.07.32c.12,0,.15.14.08.3a5.11,5.11,0,0,1-1.67,2,4.54,4.54,0,0,1-2.74.8,5.16,5.16,0,0,1-2.67-.7,4.92,4.92,0,0,1-1.83-2,6.59,6.59,0,0,1,0-5.77,4.93,4.93,0,0,1,4.49-2.72A4.61,4.61,0,0,1,135.32,134.9Zm7.13,1q-.18,0-.18.21V142a1.68,1.68,0,0,0,.31,1.17,1.32,1.32,0,0,0,1,.33h1.3a.21.21,0,0,1,.24.24v.87a.32.32,0,0,1-.3.34,14.66,14.66,0,0,1-2.07.1,2.78,2.78,0,0,1-2-.61,2.56,2.56,0,0,1-.65-1.92v-6.41c0-.16-.07-.25-.2-.25H138.4c-.18,0-.26-.08-.26-.24v-1.07c0-.15.08-.22.24-.22H140c.11,0,.16-.06.16-.18l.24-3.18c0-.19.11-.29.25-.29H142q.27,0,.27.33v3.14a.16.16,0,0,0,.18.18h2.43c.16,0,.24.07.24.22v1.07c0,.16-.09.24-.28.24Zm7-3.68a.5.5,0,0,1-.09.33.45.45,0,0,1-.32.1h-1.49a.39.39,0,0,1-.29-.09.49.49,0,0,1-.08-.3v-1.84c0-.23.1-.34.31-.34h1.68a.27.27,0,0,1,.2.09.36.36,0,0,1,.08.23Zm-.06,12.49a.38.38,0,0,1-.09.3.46.46,0,0,1-.32.08h-1.37a.44.44,0,0,1-.29-.07.32.32,0,0,1-.08-.25v-10.1a.33.33,0,0,1,.06-.23.29.29,0,0,1,.23-.07h1.62c.16,0,.24.09.24.28Zm12.12-10.23a.26.26,0,0,1,0,.23l-4.09,10a.49.49,0,0,1-.52.34h-.95a.53.53,0,0,1-.55-.32l-4.07-10a.3.3,0,0,1,0-.1.24.24,0,0,1,.08-.19.3.3,0,0,1,.21-.07h1.67a.32.32,0,0,1,.35.26l2.91,7.33c0,.13.09.2.14.2s.12-.08.19-.22l2.87-7.33a.42.42,0,0,1,.37-.24h1.19A.2.2,0,0,1,161.47,134.47Zm3.43,7.65a3.26,3.26,0,0,0,1.19,1.17,3.17,3.17,0,0,0,1.64.44,3.41,3.41,0,0,0,1.65-.39,3.91,3.91,0,0,0,1.34-1.19.19.19,0,0,1,.14-.08.25.25,0,0,1,.16,0l1,.48a.22.22,0,0,1,.1.17.35.35,0,0,1-.06.16,5.27,5.27,0,0,1-1.95,1.81,5.77,5.77,0,0,1-2.65.56,5.33,5.33,0,0,1-2.71-.69,4.8,4.8,0,0,1-1.86-1.93,5.86,5.86,0,0,1-.67-2.83,6.25,6.25,0,0,1,.69-3,5,5,0,0,1,1.87-2,5.45,5.45,0,0,1,5.27,0,4.39,4.39,0,0,1,1.75,1.91,6.58,6.58,0,0,1,.62,3v.08a.62.62,0,0,1-.05.27c0,.07-.12.09-.25.09h-7.49c-.14,0-.2.11-.2.33A3.17,3.17,0,0,0,164.9,142.12Zm5.09-3.25a.46.46,0,0,0,.28-.06.3.3,0,0,0,.07-.22,3.38,3.38,0,0,0-.34-1.48,2.58,2.58,0,0,0-1-1.1,2.67,2.67,0,0,0-1.51-.42,2.81,2.81,0,0,0-1.6.46,3,3,0,0,0-1.06,1.19,3.25,3.25,0,0,0-.35,1.61Zm10-2.94a3.4,3.4,0,0,0-1.6-.36,3,3,0,0,0-1.66.42,1.27,1.27,0,0,0-.65,1.12,1,1,0,0,0,.33.73,2.75,2.75,0,0,0,1.17.56l2.49.71a4.2,4.2,0,0,1,2.1,1.13,2.59,2.59,0,0,1,.67,1.79,2.71,2.71,0,0,1-.57,1.71,3.73,3.73,0,0,1-1.61,1.14,6.36,6.36,0,0,1-2.33.41,6.29,6.29,0,0,1-2.85-.62,3.81,3.81,0,0,1-1.76-1.61.32.32,0,0,1-.07-.18.2.2,0,0,1,.11-.18l1-.53a.49.49,0,0,1,.2-.06.19.19,0,0,1,.16.08,3.58,3.58,0,0,0,3.18,1.62,3.63,3.63,0,0,0,1.84-.42,1.24,1.24,0,0,0,.73-1.12,1.11,1.11,0,0,0-.41-.86,3.46,3.46,0,0,0-1.37-.6l-2.07-.52a4.58,4.58,0,0,1-2.18-1.07,2.48,2.48,0,0,1-.69-1.79,2.85,2.85,0,0,1,.54-1.71,3.5,3.5,0,0,1,1.49-1.15,6.1,6.1,0,0,1,4.71.11,3.83,3.83,0,0,1,1.64,1.38.43.43,0,0,1,.08.2.17.17,0,0,1-.1.14l-1.05.55-.12,0a.34.34,0,0,1-.23-.1A2.91,2.91,0,0,0,180,135.93Z"/><path class="cls-3" d="M167.69,39.3l8.46,1.21-8.4,8.41L159,48l-.91-8.77,8.41-8.41Zm-12.36,6.12v3.24l-6.56,6.56a25.29,25.29,0,1,0,3,3l6.56-6.56h3.23a37.11,37.11,0,1,1-6.25-6.25Zm-22.85,8.09h0a20.88,20.88,0,0,1,13.25,4.77l-8.52,8.53a9.11,9.11,0,1,0,4.15,9.36,9,9,0,0,0-1.18-6.37l8.57-8.53A21.09,21.09,0,0,1,132.4,95.68h-.07a21.09,21.09,0,0,1,.07-42.17Zm0,16.2A4.62,4.62,0,0,1,134,70l-3.1,3.08a2.14,2.14,0,0,0,3,3l3-3a4.78,4.78,0,0,1-4.55,6.33h0a4.81,4.81,0,0,1,0-9.62Z"/></svg>