<svg id="Layer_1" data-name="Layer 1" xmlns="http://www.w3.org/2000/svg" viewBox="0 0 75.34 75.34"><defs><style>.cls-1{fill:#25303c;}.cls-2{fill:#f2e6cb;}</style></defs><circle class="cls-1" cx="37.67" cy="37.67" r="37.5"/><path class="cls-2" d="M57.17,16.54V49a1.63,1.63,0,1,1-3.25,0V21.42H26.29a1.63,1.63,0,0,1-1.62-1.63V16.54a1.63,1.63,0,0,1,1.62-1.62H55.54A1.63,1.63,0,0,1,57.17,16.54Zm-6.5,9.75v32.5A1.63,1.63,0,0,1,49,60.42H19.79a1.63,1.63,0,0,1-1.62-1.63V26.29a1.63,1.63,0,0,1,1.62-1.62H49A1.63,1.63,0,0,1,50.67,26.29ZM43.89,50.51a1.28,1.28,0,0,0-1.29-1.28H26.23a1.29,1.29,0,0,0,0,2.57H42.6A1.29,1.29,0,0,0,43.89,50.51Zm0-7.94a1.29,1.29,0,0,0-1.29-1.29H26.23a1.29,1.29,0,0,0,0,2.57H42.6A1.28,1.28,0,0,0,43.89,42.57Zm0-7.94a1.29,1.29,0,0,0-1.29-1.29H26.23a1.29,1.29,0,0,0,0,2.57H42.6A1.29,1.29,0,0,0,43.89,34.63Z"/></svg>