<svg id="Layer_1" data-name="Layer 1" xmlns="http://www.w3.org/2000/svg" viewBox="0 0 75.34 75.34"><defs><style>.cls-1{fill:#25303c;}.cls-2{fill:#f2e6cb;}</style></defs><circle class="cls-1" cx="37.67" cy="37.67" r="37.5"/><path class="cls-2" d="M37.65,11.67a7.43,7.43,0,1,1-7.43,7.43A7.43,7.43,0,0,1,37.65,11.67ZM27.44,34H47.86a4.64,4.64,0,0,0-4.64-4.64H32.08A4.64,4.64,0,0,0,27.44,34Zm-8.69,1.86H56.59l.21,0a.92.92,0,0,1,.71,1.1l-6.44,26a.92.92,0,0,1-.92.74h-25a.94.94,0,0,1-.93-.74l-6.44-26a.93.93,0,0,1,.93-1.12ZM30.22,47.88a7.43,7.43,0,1,0,7.43-7.43A7.43,7.43,0,0,0,30.22,47.88Z"/></svg>