<svg id="Layer_1" data-name="Layer 1" xmlns="http://www.w3.org/2000/svg" viewBox="0 0 204 166"><defs><style>.cls-1{fill:#faa15c;fill-rule:evenodd;}.cls-2{fill:#25303c;}</style></defs><path class="cls-1" d="M32.68.23H171.32a32.42,32.42,0,0,1,32.32,32.32v67.6a32.42,32.42,0,0,1-32.32,32.32h-87l-50.84,33.3v-33.3h-.83A32.42,32.42,0,0,1,.36,100.15V32.55A32.42,32.42,0,0,1,32.68.23Z"/><path class="cls-2" d="M102,24.83a8.86,8.86,0,1,1-8.86,8.86A8.85,8.85,0,0,1,102,24.83ZM89.8,51.4h24.36a5.53,5.53,0,0,0-5.54-5.53H95.34A5.53,5.53,0,0,0,89.8,51.4ZM79.44,53.62h45.12a.71.71,0,0,1,.25,0,1.1,1.1,0,0,1,.85,1.31L118,86a1.1,1.1,0,0,1-1.1.88H87.12A1.1,1.1,0,0,1,86,86L78.34,55a1.13,1.13,0,0,1,.22-.93A1.1,1.1,0,0,1,79.44,53.62ZM93.12,68A8.86,8.86,0,1,0,102,59.15,8.86,8.86,0,0,0,93.12,68Z"/><path class="cls-2" d="M71.93,102.24a3.68,3.68,0,0,0-1.6-.32,3.1,3.1,0,0,0-1.87.5,1.62,1.62,0,0,0-.66,1.37c0,.78.55,1.35,1.65,1.72l2.53.8c1.91.59,2.87,1.72,2.87,3.37a3.17,3.17,0,0,1-1.24,2.63,5.43,5.43,0,0,1-3.4,1,6.81,6.81,0,0,1-2.83-.55,4.36,4.36,0,0,1-1.91-1.59.51.51,0,0,1-.07-.17.33.33,0,0,1,.17-.25l.83-.58a.56.56,0,0,1,.27-.1.24.24,0,0,1,.2.12,4.66,4.66,0,0,0,1.37,1.27,4,4,0,0,0,1.85.37,3.88,3.88,0,0,0,2.06-.46,1.54,1.54,0,0,0,.74-1.41,1.45,1.45,0,0,0-.38-1,3.33,3.33,0,0,0-1.37-.77l-2.55-.83a4.22,4.22,0,0,1-2-1.33,3.1,3.1,0,0,1-.68-2,3.27,3.27,0,0,1,.55-1.88A3.7,3.7,0,0,1,68,100.87a5.65,5.65,0,0,1,2.32-.45,5.81,5.81,0,0,1,2.36.46,4.67,4.67,0,0,1,1.72,1.24.26.26,0,0,1,.09.19.21.21,0,0,1-.09.17l-1,.74a.24.24,0,0,1-.13,0s-.1,0-.2-.15A3.79,3.79,0,0,0,71.93,102.24Zm6.71,2.19v.66c0,.09,0,.14.07.14a.44.44,0,0,0,.15-.09,5.09,5.09,0,0,1,1.07-.82,3,3,0,0,1,1.51-.32,3.41,3.41,0,0,1,1.86.5A3.36,3.36,0,0,1,84.59,106a5.81,5.81,0,0,1,.48,2.5,6.25,6.25,0,0,1-.48,2.58,3.43,3.43,0,0,1-1.33,1.62,3.56,3.56,0,0,1-2,.55,3.47,3.47,0,0,1-2.34-.84.4.4,0,0,0-.2-.12c-.06,0-.09.07-.09.22v3.12c0,.16-.07.24-.2.24H77.07c-.14,0-.22-.08-.22-.24V104.47a.33.33,0,0,1,.08-.24.38.38,0,0,1,.24-.07h1.18C78.55,104.16,78.64,104.25,78.64,104.43Zm1,7.37a2.34,2.34,0,0,0,1.09.26,2.19,2.19,0,0,0,1.84-.9,4.33,4.33,0,0,0,.69-2.64,3.85,3.85,0,0,0-.68-2.5,2.19,2.19,0,0,0-1.77-.81,2.38,2.38,0,0,0-1.1.26,2,2,0,0,0-.78.68,1.39,1.39,0,0,0-.28.81V111A4.16,4.16,0,0,0,79.63,111.8Zm9.09-1.17A2.71,2.71,0,0,0,91.07,112a2.81,2.81,0,0,0,1.38-.32,3.33,3.33,0,0,0,1.12-1,.13.13,0,0,1,.12-.07.25.25,0,0,1,.13,0l.86.41a.15.15,0,0,1,.09.13.27.27,0,0,1-.06.14,4.41,4.41,0,0,1-1.61,1.51,4.84,4.84,0,0,1-2.21.46,4.44,4.44,0,0,1-2.26-.57,4,4,0,0,1-1.56-1.61,4.91,4.91,0,0,1-.55-2.35,5.27,5.27,0,0,1,.57-2.5,4.1,4.1,0,0,1,1.56-1.66,4.23,4.23,0,0,1,2.2-.58,4.31,4.31,0,0,1,2.19.54,3.66,3.66,0,0,1,1.46,1.6,5.44,5.44,0,0,1,.52,2.48v.06a.59.59,0,0,1,0,.23.23.23,0,0,1-.21.08H88.52c-.11,0-.16.09-.16.27A2.67,2.67,0,0,0,88.72,110.63Zm4.24-2.7a.41.41,0,0,0,.23-.05.25.25,0,0,0,.06-.19,2.84,2.84,0,0,0-.28-1.23,2.33,2.33,0,0,0-.81-.92,2.25,2.25,0,0,0-1.26-.35,2.38,2.38,0,0,0-1.33.38,2.57,2.57,0,0,0-.88,1,2.78,2.78,0,0,0-.3,1.34ZM99,113.27a3,3,0,0,1-2-.66,2.27,2.27,0,0,1-.75-1.78,2.52,2.52,0,0,1,1.19-2.18,6.54,6.54,0,0,1,3.38-.91l1.1-.08c.18,0,.27-.11.27-.26V107a1.72,1.72,0,0,0-.51-1.31,1.92,1.92,0,0,0-1.38-.48,2.54,2.54,0,0,0-2.21,1.25.25.25,0,0,1-.11.13.38.38,0,0,1-.18,0l-1.14-.34a.13.13,0,0,1-.1-.13.41.41,0,0,1,0-.19A3.22,3.22,0,0,1,98,104.49a5,5,0,0,1,2.33-.49,4,4,0,0,1,2.65.75,2.63,2.63,0,0,1,.88,2.11v6a.3.3,0,0,1-.06.22.25.25,0,0,1-.19.06h-1.13q-.24,0-.27-.33l0-.65c0-.08,0-.13-.1-.13a.4.4,0,0,0-.18.1A4,4,0,0,1,99,113.27Zm2.9-4.62-.91.07a5,5,0,0,0-2.22.56,1.48,1.48,0,0,0-.81,1.33,1.22,1.22,0,0,0,.47,1,1.9,1.9,0,0,0,1.26.38,2.74,2.74,0,0,0,1.72-.62,1.59,1.59,0,0,0,.73-1.18V108.9C102.17,108.72,102.09,108.64,101.93,108.65Zm12.32,4.28c0,.12-.08.17-.22.17h-1.51a.34.34,0,0,1-.33-.25l-2.31-4.08c0-.07-.07-.1-.1-.1a.15.15,0,0,0-.12.07l-1.61,1.6a.43.43,0,0,0-.13.35v2.09a.35.35,0,0,1-.08.26.41.41,0,0,1-.26.06h-1.16a.33.33,0,0,1-.23-.06.29.29,0,0,1-.06-.21v-12c0-.17.08-.25.22-.25h1.35c.15,0,.22.08.22.25v7.54c0,.1,0,.15.07.15s.06,0,.12-.08l3.84-4.07a.65.65,0,0,1,.39-.22h1.26c.16,0,.24,0,.24.14a.33.33,0,0,1-.12.22l-2.56,2.61a.26.26,0,0,0-.09.17.88.88,0,0,0,.05.19l3.09,5.29A.33.33,0,0,1,114.25,112.93Zm2.75-2.3a2.66,2.66,0,0,0,1,1,2.7,2.7,0,0,0,1.37.36,2.87,2.87,0,0,0,1.38-.32,3.4,3.4,0,0,0,1.11-1,.13.13,0,0,1,.12-.07.23.23,0,0,1,.13,0l.86.41a.15.15,0,0,1,.09.13.34.34,0,0,1,0,.14,4.35,4.35,0,0,1-1.62,1.51,4.81,4.81,0,0,1-2.21.46,4.46,4.46,0,0,1-2.26-.57,4,4,0,0,1-1.55-1.61,4.92,4.92,0,0,1-.56-2.35,5.16,5.16,0,0,1,.58-2.5,4.15,4.15,0,0,1,1.55-1.66,4.27,4.27,0,0,1,2.21-.58,4.34,4.34,0,0,1,2.19.54,3.72,3.72,0,0,1,1.46,1.6,5.57,5.57,0,0,1,.51,2.48v.06a.45.45,0,0,1,0,.23.23.23,0,0,1-.21.08h-6.24c-.11,0-.17.09-.17.27A2.67,2.67,0,0,0,117,110.63Zm4.24-2.7a.39.39,0,0,0,.23-.05.25.25,0,0,0,.06-.19,2.71,2.71,0,0,0-.28-1.23,2.18,2.18,0,0,0-.81-.92,2.23,2.23,0,0,0-1.25-.35,2.42,2.42,0,0,0-1.34.38,2.65,2.65,0,0,0-.88,1,2.78,2.78,0,0,0-.3,1.34Zm3.85,4.9v-8.41c0-.17.07-.26.22-.26h1.3c.13,0,.2.08.2.22v1.07c0,.06,0,.1.06.11s.08,0,.13-.06a4.89,4.89,0,0,1,1.29-1.12,2.55,2.55,0,0,1,1.3-.38c.4,0,.59.07.59.23v1.32c0,.13-.06.19-.18.17a3.51,3.51,0,0,0-.9-.09,2.28,2.28,0,0,0-1,.26,2.73,2.73,0,0,0-.88.69,1.34,1.34,0,0,0-.35.86v5.38c0,.19-.11.28-.32.28h-1.2A.24.24,0,0,1,125.09,112.83Zm11.16-7.36a2.93,2.93,0,0,0-1.33-.29,2.52,2.52,0,0,0-1.38.34,1.06,1.06,0,0,0-.54.94.85.85,0,0,0,.27.61,2.34,2.34,0,0,0,1,.47l2.07.59a3.43,3.43,0,0,1,1.75.93,2.31,2.31,0,0,1,.08,2.92,3.05,3.05,0,0,1-1.34,1,5.16,5.16,0,0,1-1.94.34,5.31,5.31,0,0,1-2.38-.51,3.2,3.2,0,0,1-1.46-1.34.29.29,0,0,1-.06-.16.18.18,0,0,1,.09-.15l.83-.44a.41.41,0,0,1,.16,0,.17.17,0,0,1,.14.07,3,3,0,0,0,2.65,1.35,3,3,0,0,0,1.53-.34,1.06,1.06,0,0,0,.61-.94.93.93,0,0,0-.35-.72,3.08,3.08,0,0,0-1.13-.5l-1.73-.43a3.74,3.74,0,0,1-1.82-.9,2,2,0,0,1-.57-1.48,2.36,2.36,0,0,1,.45-1.43,2.86,2.86,0,0,1,1.25-1,4.64,4.64,0,0,1,1.86-.34,4.75,4.75,0,0,1,2.06.43,3.32,3.32,0,0,1,1.36,1.15.32.32,0,0,1,.07.17.17.17,0,0,1-.08.12l-.88.45-.1,0a.29.29,0,0,1-.19-.08A2.49,2.49,0,0,0,136.25,105.47Z"/></svg>