<svg id="Layer_1" data-name="Layer 1" xmlns="http://www.w3.org/2000/svg" viewBox="0 0 654.75 672.16"><defs><style>.cls-1{fill:#f5ecd8;opacity:0.85;}.cls-1,.cls-2{fill-rule:evenodd;}.cls-2{fill:none;stroke:#5b412a;stroke-linecap:round;stroke-linejoin:round;stroke-width:2.89px;}</style></defs><g id="quote"><path class="cls-1" d="M68.43,20H596.56A55.9,55.9,0,0,1,652.3,75.74V513.39a55.9,55.9,0,0,1-55.74,55.74h-439L69.86,669.85V569.13H68.43a55.9,55.9,0,0,1-55.74-55.74V75.74A55.9,55.9,0,0,1,68.43,20Z"/><path id="outline" class="cls-2" d="M58.19,2.31H586.32a55.9,55.9,0,0,1,55.74,55.74V495.7a55.9,55.9,0,0,1-55.74,55.74h-439L59.62,652.16V551.44H58.19A55.91,55.91,0,0,1,2.44,495.7V58.05A55.91,55.91,0,0,1,58.19,2.31Z"/></g></svg>