<svg width="281" height="205" viewBox="0 0 281 205" fill="none" xmlns="http://www.w3.org/2000/svg">
<g clip-path="url(#clip0)">
<path opacity="0.25" d="M261.7 167.8H244.5C245.5 165.7 246.1 163.3 246.1 160.8C246.1 151.6 238.6 144.1 229.4 144.1H40.0999C30.8999 144.1 23.3999 151.6 23.3999 160.8C23.3999 170 30.8999 177.5 40.0999 177.5H57.2999C56.2999 179.6 55.6999 182 55.6999 184.5C55.6999 193.7 63.1999 201.2 72.3999 201.2H261.8C271 201.2 278.5 193.7 278.5 184.5C278.4 175.3 270.9 167.8 261.7 167.8Z" fill="#B5D8FD"/>
<path opacity="0.25" d="M267 159.5C274.621 159.5 280.8 153.322 280.8 145.7C280.8 138.078 274.621 131.9 267 131.9C259.378 131.9 253.2 138.078 253.2 145.7C253.2 153.322 259.378 159.5 267 159.5Z" fill="#B5D8FD"/>
<path opacity="0.25" d="M35.1 204.4C40.5124 204.4 44.9001 200.012 44.9001 194.6C44.9001 189.188 40.5124 184.8 35.1 184.8C29.6877 184.8 25.3 189.188 25.3 194.6C25.3 200.012 29.6877 204.4 35.1 204.4Z" fill="#B5D8FD"/>
<path d="M196.1 136.9H9.6C4.3 136.9 0 132.6 0 127.3V9.6C0 4.3 4.3 0 9.6 0H196.2C201.5 0 205.8 4.3 205.8 9.6V127.4C205.7 132.6 201.4 136.9 196.1 136.9Z" fill="url(#paint0_linear)"/>
<path d="M102.8 133.1C105.23 133.1 107.2 131.13 107.2 128.7C107.2 126.27 105.23 124.3 102.8 124.3C100.37 124.3 98.3999 126.27 98.3999 128.7C98.3999 131.13 100.37 133.1 102.8 133.1Z" fill="#1FC2D7"/>
<path d="M114.1 151.6V136.9H102.8H91.6001V151.6H114.1Z" fill="#075D93"/>
<path d="M197.2 11.8H8.69995V120.1H197.2V11.8Z" fill="#EFF0ED"/>
<path d="M75.3999 71.6H133.1" stroke="#00559B" stroke-width="1.4798" stroke-miterlimit="10"/>
<path d="M71.3 79H137.1" stroke="#00559B" stroke-width="1.4798" stroke-miterlimit="10"/>
<path d="M78.1001 86.7H130.4" stroke="#00559B" stroke-width="1.4798" stroke-miterlimit="10"/>
<path d="M164.2 100.4H142V107.8H164.2V100.4Z" fill="#027B88"/>
<path d="M66.0999 101.8V106.3H46.7999V101.8H66.0999ZM67.5999 100.4H45.3999V107.8H67.5999V100.4Z" fill="#027B88"/>
<path d="M162.9 118.7L159.2 106.9C158.4 104.3 153.6 105.8 154.4 108.4L160.3 127.1C160.4 127.3 160.2 127.5 160 127.4C158.9 126.8 156.3 125.5 155.1 124.5C153.6 123.3 151.1 125.2 152.7 127.1C154.3 129 166.4 139.5 166.4 139.5L180.4 135.1C180.4 135.1 181.1 124 180.8 122.7C180.5 121.4 178.8 116.3 178.2 114.6C177.4 112.2 174.7 113 172.3 113.8" fill="white"/>
<path d="M162.9 118.7L159.2 106.9C158.4 104.3 153.6 105.8 154.4 108.4L160.3 127.1C160.4 127.3 160.2 127.5 160 127.4C158.9 126.8 156.3 125.5 155.1 124.5C153.6 123.3 151.1 125.2 152.7 127.1C154.3 129 166.4 139.5 166.4 139.5L180.4 135.1C180.4 135.1 181.1 124 180.8 122.7C180.5 121.4 178.8 116.3 178.2 114.6C177.4 112.2 174.7 113 172.3 113.8" stroke="#FAAA17" stroke-width="1.461" stroke-miterlimit="10"/>
<path d="M161.3 113.7L165 112.5C165.8 112.3 166.6 112.7 166.8 113.5L168.1 117.8" fill="white"/>
<path d="M161.3 113.7L165 112.5C165.8 112.3 166.6 112.7 166.8 113.5L168.1 117.8" stroke="#FAAA17" stroke-width="1.461" stroke-miterlimit="10"/>
<path d="M166.8 113.5L169.9 112.5C170.9 112.2 172 112.7 172.3 113.7L173.5 117.5" fill="white"/>
<path d="M166.8 113.5L169.9 112.5C170.9 112.2 172 112.7 172.3 113.7L173.5 117.5" stroke="#FAAA17" stroke-width="1.461" stroke-miterlimit="10"/>
<path d="M197.1 10.7H8.69995V20.2H197.1V10.7Z" fill="white"/>
<path d="M121.7 159.3H84.1C81.4 159.3 79.3 157.1 79.3 154.5V153.2C79.3 150.5 81.5 148.4 84.1 148.4H121.8C124.5 148.4 126.6 150.6 126.6 153.2V154.5C126.5 157.1 124.4 159.3 121.7 159.3Z" fill="#075D93"/>
<path opacity="0.7" d="M102.4 62.8C112.341 62.8 120.4 54.7412 120.4 44.8C120.4 34.8589 112.341 26.8 102.4 26.8C92.4588 26.8 84.3999 34.8589 84.3999 44.8C84.3999 54.7412 92.4588 62.8 102.4 62.8Z" fill="#FAAA17"/>
<path d="M89.8 45.2L98.5 53.9L113.7 38.7" stroke="white" stroke-width="4.0474" stroke-miterlimit="10" stroke-linecap="round" stroke-linejoin="round"/>
</g>
<defs>
<linearGradient id="paint0_linear" x1="-79.576" y1="266.955" x2="286.723" y2="-108.643" gradientUnits="userSpaceOnUse">
<stop offset="0.160232" stop-color="#054E6F"/>
<stop offset="0.573392" stop-color="#0F82B5"/>
<stop offset="0.838542" stop-color="#248EFF"/>
</linearGradient>
<clipPath id="clip0">
<rect width="280.9" height="204.4" fill="white"/>
</clipPath>
</defs>
</svg>
