<svg id="Layer_1" data-name="Layer 1" xmlns="http://www.w3.org/2000/svg" viewBox="0 0 986.61 542.64"><defs><style>.cls-1{fill:#f8f2e5;}.cls-1,.cls-2{fill-rule:evenodd;}.cls-2{fill:none;stroke:#5b412a;stroke-miterlimit:10;stroke-width:2px;}</style></defs><path id="Quote_Bubble" data-name="Quote Bubble" class="cls-1" d="M922.65,23.35H86.42a60,60,0,0,0-60,60V370.83a60,60,0,0,0,60,60h56l-.51,108.44L301.5,430.83H922.65a60,60,0,0,0,60-60V83.35A60,60,0,0,0,922.65,23.35Z"/><path class="cls-2" d="M900.19,3.37H64a60,60,0,0,0-60,60V350.86a60,60,0,0,0,60,60h56l-.5,108.43L279,410.86H900.19a60,60,0,0,0,60-60V63.37A60,60,0,0,0,900.19,3.37Z"/></svg>