<svg width="702" height="913" viewBox="0 0 702 913" fill="none" xmlns="http://www.w3.org/2000/svg">
<path fill-rule="evenodd" clip-rule="evenodd" d="M371.449 -11.1934C401.964 57.8275 392.225 135.964 386.382 170.475C384.434 180.242 374.046 185.451 365.605 181.544C331.844 165.917 255.882 124.244 225.367 53.9206C194.852 -16.4025 211.083 -94.5394 220.822 -128.399C223.419 -137.515 233.807 -142.073 242.247 -137.515C272.113 -121.887 340.934 -80.8654 371.449 -11.1934ZM425.337 -8.58961C449.359 -32.0307 477.277 -47.0069 494.807 -54.8206C503.247 -58.7274 513.635 -53.5183 516.232 -43.7512C522.076 -15.7522 528.568 42.1993 502.598 92.3371C482.471 131.406 447.412 157.451 420.143 172.427C419.818 172.427 419.656 172.59 419.494 172.753C419.331 172.916 419.169 173.079 418.844 173.079C418.844 171.776 419.494 169.823 420.143 167.869C428.583 135.964 442.218 70.1984 422.091 7.03775C420.143 1.17749 421.441 -4.68277 425.337 -8.58961ZM716.851 312.423L716.202 311.12C715.877 310.795 715.715 310.469 715.553 310.144C715.39 309.818 715.228 309.492 714.903 309.167L714.254 308.516C648.679 218.658 570.12 199.775 515.583 199.775C461.695 199.775 415.598 217.356 383.135 234.937C350.672 217.356 303.926 199.775 250.688 199.775C196.15 199.775 117.591 218.658 52.0163 308.516L51.3671 309.818C51.0424 310.144 50.8801 310.469 50.7178 310.795C50.5555 311.12 50.3932 311.446 50.0686 311.771L49.4193 313.074C13.0612 372.328 -3.8194 439.395 0.725372 512.974C4.62089 576.786 24.0985 641.9 57.8596 701.805C95.5162 768.872 148.106 825.521 206.538 860.683C210.434 863.287 214.979 864.59 219.523 864.59C224.717 864.59 235.106 860.032 239.001 857.427L239.004 857.427L239.006 857.427H261.724C266.269 857.427 270.814 854.822 272.762 850.264C280.553 834.637 292.239 820.312 298.083 820.312C300.68 820.963 307.172 826.823 314.314 848.962C315.612 854.171 320.806 857.427 326 857.427H350.672L358.463 878.914C360.411 884.774 366.254 888.03 372.097 887.379C377.941 886.728 382.485 882.17 383.135 876.31L392.224 773.429L414.948 940.121C415.597 946.633 420.791 951.191 427.284 951.191L427.933 950.54C434.426 949.888 439.62 944.679 439.62 938.168V857.427H464.291C469.485 857.427 474.03 854.171 475.978 848.962C481.172 833.334 490.261 816.405 495.455 813.149C497.403 815.102 502.597 822.916 508.44 847.66C509.739 853.52 514.933 857.427 520.776 857.427H555.836C562.328 857.427 568.172 851.566 568.172 845.055C568.172 838.543 562.978 832.683 555.836 832.683H530.515C525.321 811.196 515.582 789.057 497.403 788.406C477.276 787.103 462.993 814.451 455.851 832.683H427.284H425.985L401.963 659.48C401.314 652.969 396.12 648.411 389.627 648.411C383.135 649.062 377.941 653.62 377.291 660.131L362.359 832.683H360.411H335.739C330.545 818.358 320.157 796.871 300.03 795.568C278.605 794.266 261.724 819.009 254.583 832.683H241.359C240.074 827.509 237.416 822.251 232.509 817.708C181.867 787.104 135.121 736.966 102.009 677.061C72.1432 623.668 54.6133 565.716 51.3671 509.718C47.4716 447.209 61.7551 389.257 92.9192 338.468C145.509 265.54 207.837 250.564 250.688 250.564C300.68 250.564 343.531 270.098 370.15 285.726C377.941 290.284 387.68 290.284 395.471 285.726C422.74 269.447 465.59 250.564 514.933 250.564C557.784 250.564 619.463 265.54 673.351 338.468C704.515 389.257 718.149 447.209 714.903 509.718C714.687 511.889 714.542 514.059 714.398 516.229C714.11 520.57 713.821 524.911 712.955 529.252C711.657 542.926 721.396 555.298 735.03 557.251C748.664 558.554 761 548.786 762.948 535.113C763.273 531.531 763.597 527.787 763.922 524.043C764.246 520.299 764.571 516.555 764.896 512.974C769.44 439.395 753.209 372.328 716.851 312.423Z" fill="white" fill-opacity="0.3"/>
</svg>
