<svg id="Layer_1" data-name="Layer 1" xmlns="http://www.w3.org/2000/svg" viewBox="0 0 111 30"><defs><style>.cls-1{fill:#fff;}</style></defs><path class="cls-1" d="M53.24,24.11H49.72L47.21,14h0L44.76,24.11H41.27l-4-15.32H41l2.35,10.32h0L45.85,8.79h3.31l2.57,10.32h0l.13-.67,2.24-9.65h3ZM67.63,19a7.26,7.26,0,0,0-1.16-4.44,5.17,5.17,0,0,0-4.16-2c-3.53,0-5.51,2.7-5.51,6.05a5.38,5.38,0,0,0,5.6,5.74,5.16,5.16,0,0,0,5.16-3.91l-3-.22a1.93,1.93,0,0,1-2,1.79,2.19,2.19,0,0,1-2.18-2.44l0-.56Zm-7.3-1.94c.11-1.29.67-2.37,2.12-2.37s1.83,1.14,1.9,2.37ZM78.4,15.51a4.23,4.23,0,0,0-4.47-3c-2.41,0-4.85,1-4.85,3.8a3.22,3.22,0,0,0,2.24,3.06,24.51,24.51,0,0,0,3.37.67c.6.06,1.27.2,1.27,1S74.6,22.1,74,22.1c-1,0-2.28-.36-2.5-1.52l-2.84.4c.61,2.55,2.82,3.35,5.19,3.35a6.05,6.05,0,0,0,3.53-.94,3.54,3.54,0,0,0,1.51-2.92c0-5.12-6.81-2.7-6.81-4.83,0-.82,1-1,1.7-1A2.06,2.06,0,0,1,76,16.16ZM87,12.74H84.61V9.19l-2.86.22-.29,3.33h-2v2.61h1.85v5c0,1.11,0,2.47.92,3.23a4.84,4.84,0,0,0,2.92.74,10,10,0,0,0,2.06-.24V21.61c-.38,0-.81.09-1.1.09-1.4,0-1.51-.34-1.51-1.84V15.35H87ZM99,24.11a5.44,5.44,0,0,1-.22-1.7V17.12c0-1.36.11-2.62-1.05-3.55a6,6,0,0,0-3.6-1c-2.39,0-5.07.8-5.4,3.55l3.1.29c0-1.12.92-1.65,2-1.65a1.7,1.7,0,0,1,1.34.53,2.38,2.38,0,0,1,.29,1.5V17a18.62,18.62,0,0,0-4.49.71,3.54,3.54,0,0,0-2.55,3.38c0,2.14,1.57,3.21,3.58,3.21a4,4,0,0,0,3.61-2,7.08,7.08,0,0,0,.16,1.77Zm-3.57-5A3.59,3.59,0,0,1,95,21.32a2,2,0,0,1-1.65.93,1.37,1.37,0,0,1-1.45-1.49c0-1.65,2.3-1.94,3.55-2.08Zm12.15-6.39h-2.44V9.19l-2.85.22L102,12.74h-2v2.61h1.85v5c0,1.11,0,2.47.92,3.23a4.82,4.82,0,0,0,2.92.74,10,10,0,0,0,2.06-.24V21.61c-.38,0-.81.09-1.1.09-1.4,0-1.52-.34-1.52-1.84V15.35h2.44Zm1.69-3.94a1.63,1.63,0,0,0,0,3.25,1.63,1.63,0,0,0,0-3.25m0,3a1.34,1.34,0,1,1,1.33-1.33,1.34,1.34,0,0,1-1.33,1.33M109,10.6h.43l.28.69h.39l-.32-.75a.48.48,0,0,0,.32-.47c0-.52-.55-.52-.66-.52h-.81v1.74H109Zm0-.76h.42c.23,0,.3.12.3.22s-.21.25-.33.25H109ZM31.46.41,14,24.53l2.91,5.06L33.66.41ZM27.4.41H26.07l-15,19.14L21.74.41H.1L14,24.53Z"/></svg>